<svg width="24" height="24" viewBox="0 0 24 24" fill="none" xmlns="http://www.w3.org/2000/svg"><path fill-rule="evenodd" clip-rule="evenodd" d="M11.378 5.886C9.67 4.105 6.79 4.08 4.923 5.904a.744.744 0 0 1-.018.017c-1.812 1.66-1.838 4.437.018 6.25l.005.005 7.01 6.97 7.139-6.974a.727.727 0 0 1 .018-.018c1.812-1.659 1.838-4.436-.018-6.25a4.69 4.69 0 0 0-6.608 0 .768.768 0 0 1-1.09-.018Zm.569-1.568c-2.352-1.914-5.824-1.732-8.089.472-2.49 2.29-2.461 6.088-.011 8.484l.003.003 7.541 7.5a.768.768 0 0 0 1.078.004l7.673-7.496c2.49-2.291 2.461-6.09.009-8.486a6.22 6.22 0 0 0-8.204-.48Z" fill="#030D45"/></svg>