<svg height="424.2" preserveAspectRatio="xMidYMid meet" viewBox="-.2 0 373.1 424.2" width="373.1" xmlns="http://www.w3.org/2000/svg" xmlns:xlink="http://www.w3.org/1999/xlink" zoomAndPan="magnify"><clipPath id="a"><path d="m77 330h239v94.210938h-239zm0 0"/></clipPath><clipPath id="b"><path d="m360 188h12.898438v11h-12.898438zm0 0"/></clipPath><path d="m311.390625 361.566406c-8.300781.863282-16.957031 1.175782-17.992187-1.703125-2.878907-8.015625-12.996094-10.378906-11.933594-11.382812.417968-.398438 4.011718-.199219 9.976562.886719 2.9375.53125 11.695313 3.375 14.601563 3.988281 1.492187.316406 2.734375.828125 3.796875 1.371093 4.277344 2.183594 11.636718 2.859376 17.277344 4.210938 3.058593.734375 5.601562 2.453125 6.902343 2.878906-1.507812-1.828125-3.8125-2.472656-5.046875-2.941406-2.195312-.839844-4.109375-1.664062-6.113281-2.015625-3.339844-.578125-5.429687-.769531-7.867187-1.972656-5.878907-2.894531-9.175782-4.257813-14.875-5.136719.242187-.625 10.25-1.453125 14.523437-1.273438 4.46875.175782 11.769531 1.296876 17.179687 1 1.953126-.109374 3.617188-.449218 5.460938-.648437 1.84375-.195313 4.054688.335937 6.085938.792969-1.765626-1.066406-5.371094-1.445313-8.140626-1.367188-2.765624.082032-5.304687.472656-8.234374.308594-4.292969-.242188-8.5-1.628906-12.816407-1.925781-5.660156-.386719-10.015625 1.207031-15.683593.851562-3.160157-.203125-6.109376-1.140625-9.289063-1.574219-7.925781-1.085937-21.070313.585938-32.503906-.0625-5.90625-.34375-12.644531-.230468-17.679688-1.691406-4.070312-1.179687-12.445312-6.417968-12.886719-7.125-1.257812-2.007812 4.445313-3.488281 8.816407-3.050781 4.371093.441406 7.679687 1.019531 12.058593 1.441406 5.304688.511719 10.976563.332031 16.285157.085938 4.363281-.207031 13.464843-.527344 17.855469-.164063 7.644531.617188 10.636718 1.867188 18.273437 2.523438-4.308594-.945313-8.691406-1.808594-12.933594-2.8125-5.113281-1.21875-12.316406-1.035156-15.269531-1.027344-29.710938.152344-28.367188-4.90625-46.09375-6.011719-8.21875-.492187-22.597656-.664062-30.84375-.40625-5.410156.164063-10.824219 1.367188-16.242188 1.417969-2.796874.023438-5.589843.039062-8.386718.058594-1.347656.003906-3.015625-1.914063-3.558594-1.410156-2.554688-.261719-9.148438 1.019531-9.476562 1.046874-3.726563.289063-7.933594.144532-11.484376.710938-2.875.453125-8.0625 1.707031-9.710937 2.996094-4 1.710937-7.902344 3.636718-12.9375 4.507812-2.113281.367188-4.363281.535156-6.410156.992188-4.511719 1.003906-7.363281 3.226562-11.644531 4.457031-4.195313 1.203125-9.257813 1.324219-13.976563 1.199219-4.714844-.125-9.433594-.460938-14.175781-.050782-4.742188.40625-9.683594 1.761719-11.472656 3.875 4.285156-2.605468 12.28125-2.886718 18.871093-2.472656 6.585938.40625 13.648438 1.191406 19.875-.253906 4.613281-1.070312 7.976563-3.242188 12.789063-4.0625 1.699218-.289062 3.832031-.335938 4.90625.292969.96875.570312.4375 1.410156.09375 2.152343-1.695313 3.632813-5.027344 4.125-8.660156 5.796876-2.617188 1.207031-5.46875 1.738281-8.710938 2.527343-5.421875 1.316407-11.535156 2.199219-17.441406 2.734375-5.90625.527344-12.113282 1.425782-16.316406 3.53125-2.421876 1.214844-3.972657 2.730469-6.230469 4-5.183594 2.917969-12.671875 4.945313-14.945313 8.464844-1.285156 1.988281-1.433594 3.71875-1.539062 5.742188-.101563 1.964843-1.585938 3.964843-4.175782 5.617187 2.960938-1.964844 5.648438-3.347656 6.832032-5.628906 1.3125-2.527344.519531-5.027344 4.140625-7.113281 3.113281-1.796876 8.636719-4.386719 12.09375-6.0625 2.183593-1.058594 3.667969-1.792969 5.675781-2.925782 4.519531-2.546875 10.046875-2.929687 16.742188-3.808594 6.691406-.878906 14.914062-2.371093 21.351562-3.648437 6.4375-1.28125 12.964844-4.328125 14.945312-7.457031.90625-1.433594.492188-2.199219 1.507813-3.621094 1.816406-2.53125 6.652344-4.394531 11.691406-5.660156 5.042969-1.257813 7.410157-2.5625 16.082031-2.65625 1.859376-.023438 11.472657-.917969 15.476563 1.441406 2.164063 1.269531-.160156 2.820312-1.96875 4.261719-4.132813 3.292969-11.785156 5.179687-18.570313 7.328125-6.789062 2.140625-13.585937 5.167968-14.007812 8.941406-.242188 2.148438.089844 4.152344 2.230469 6.289062 1.917969 1.910157 4.238281 3.515626-3.019531 4.78125-3.839844.671876-10.460938.378907-14.1875 1.203126-3.957032.875-5.777344 2.757812-8.984376 4.171874-4.402343 1.9375-10.390624 1.960938-16.261718 2.34375-8.976563.59375-16.992188 3.914063-20.007813 7.882813 1.796875-1.601563 5.710938-2.574219 8.9375-3.695313 7.285157-2.535156 16.777344-1.765624 22.5-2.652343-2.125 2.9375.925781 7.777343 2.40625 10.726562 1.632813 3.25-1.242187 3.289063-1.839843 7.355469-.425782 2.847656 2.089843 6.148438 7.757812 7.09375-3.460938-1.292969-4.269531-3.636719-3.804688-5.742188.464844-2.101562 1.945313-4.167968 2.074219-6.277343.273438-4.351563-5.976562-9.425781-.675781-13.101563 3.902344-2.703125 4.953125-4.820312 11.167969-5.917968 9.152343-1.613282 18.832031-.582032 21.847656-4.226563 1.320313-1.597656-1.296875-3.796875-2-5.445313-4.066406-9.5625 14.617187-11.820312 16.074219-11.15625 2.066406.921876-2.535156 3.933594.695312 6.695313 2.175782 1.863281 7.519532 2.683594 8.722656 4.746094 1.117188 1.921875-2.488281 3.738281-3.554687 5.695312-2.210937 4.050781 6.734375 8.132813 3.6875 12.070313-2.914063 3.773437-13.726563 4.136718-21.054687 6.214844-10.90625 3.097656-12.972657 11.296874-3.871094 15.257812-6.132813-5.375-3.726563-11.695312 6.542968-13.339844 4.515626-.722656 9.902344-1.378906 14.003907-2.535156 4.015625-1.128906 6.785156-4.609375 11.410156-4.714844 3.449219-.078125 5.984375 4.011719 7.648437 5.425782 1.664063 1.414062 2.5 3.027343 4.238282 4.421874 2.84375 2.277344 8.210937 4.238282 7.484375 6.882813-.363281 1.3125-.839844 2.265625-.890625 3.84375 3.699218-2.4375 4.027344-5.898437.789062-8.433594-1.976562-1.546875-5.148437-2.773437-6.25-4.511719-.726562-1.140624-3.472656-5.824218-4.574218-6.890624-4.003907-3.878907-8.621094-3.0625-11.558594-7.140626-6.046875-8.390624 6.847656-8.042968 4.054687-11.855468-2.464843-3.375-12.820312-5.132813-11.828125-8.691406.679688-2.457032 6.558594-3.824219 9.011719-6.023438 1.066406-.960938 1.449219-2.058594 2.550781-3.011719 1.890625-1.632812 5.972656-2.644531 9.867188-2.441406 3.894531.203125 4.863281 2.265625 5.878906 4.042969 2.230469 3.910156-4.136719 7.230468-1.800781 11.128906.726562 1.210938 2.515625 2.316406 2.34375 3.578125-.164063 1.1875-2.023438 2.148437-3.234375 3.199219-2.78125 2.410156-1.960938 5.613281 1.941406 7.609375 3.972656 2.035156 10.144531 2.664062 15.351562 3.949219 5.203126 1.289062 9.976563 4.082031 7.636719 6.625 3.195313-2.152344 2.714844-5.339844-1.09375-7.25-3.171875-1.59375-7.921875-2.195313-12.003906-3.226563-4.085937-1.03125-7.953125-3.011719-6.867187-5.144531.949218-1.863282 5.347656-3.078125 5.808593-4.976563.195313-.8125.230469-1.6875-.457031-2.4375-5.835938-6.363281 1.605469-11.898437 18.132812-5.242187 5.503907 2.21875.9375 6.230468 5.253907 7.808594 4.953125 1.800781 17.914062-.503907 20.761719 2.132812 2.683593 2.46875-6.84375 7.0625-6.589844 9.828125.253906 2.773437 5.8125 4.867187 7.066406 7.582031 1.742188 3.761719-5.117188 7.15625-6.484375 10.960938-1.179687 3.28125 2.238281 6.816406 8.261719 8.550781-5.375-1.898437-5.085938-5.765625-2.878906-8.75 2.207031-2.992187 5.832031-5.894531 5.371093-9.046875-.417969-2.867188-4.191406-5.414062-5.351562-8.246094-1.164063-2.832031 2.460937-5.773437 8.539062-6.160156 14.675781-.925781 9.152344 7.019531 15.441407 10.121094 5.894531 2.90625 21.035156 4.785156 21.019531 10.183594-.003907 2.449218-.542969 5.613281-5.105469 6.855468 9.023438-2.113281 11.847656-8.25 5.441406-11.953125-5.300781-3.0625-21.917968-6.617187-19.207031-9.566406-.878906.957031 14.972656 1.777344 27.878906.296875 7.59375-.875 15.542969 1.386719 17.671875 4.867188-1.785156-2.921876-5.664062-5.210938-11.214844-5.988282-5.554687-.777344-9.699218-.15625-15.425781-.054687-5.726562.09375-13.578125.492187-17.625-1.449219-2.96875-1.429688-2.816406-4.316406-6.378906-5.421875-3.269531-1.019531-7.761719-.929687-10.761719-2.117187-2.34375-.925782-3.230468-2.425782-5.226562-3.519532-5.964844-3.277344-20.550782 1.367188-20.933594-2.875-.488281-5.414062-7.597656-8.214844-14.707031-9.1875-4.675781-.640625-9.410157-1.695312-11.921875-3.652344-2.511719-1.957031-2.019532-4.863281 2.007812-6.140624 4.046875-1.277344 9.757813-.441407 13.425782 1.09375 3.664062 1.535156 6.011718 3.632812 9.128906 5.417968 7.453125 4.253906 21.320312 5.796875 32.835937 5.277344 3.378907-.191406 23.941407-.777344 28.824219 9.519531 1.226562 2.582031 3.761719 5.433594 8.992188 6.570313 6.265624 1.351562 14.464843-2.460938 20.605468-.941406 5.074219 1.246093 5.964844 5.929687 8.976563 8.144531 3.382812 2.480469 9.972656 3.222656 15.695312 4.546875-8.71875-2.015625-13.175781-5.28125-15.972656-8.253906-3.179687-3.371094-4.96875-7.859376-14.3125-6.894532" fill="#3c3c3c"/><g clip-path="url(#a)"><path d="m103.136719 374.128906c6.597656 1.351563 13.46875 1.90625 14.285156-1.929687 2.273437-10.667969 10.304687-13.609375 9.460937-14.972657-.332031-.539062-3.183593-.339843-7.921874.976563-2.332032.648437-9.285157 4.253906-11.59375 5.007813-1.183594.390624-2.167969 1.046874-3.011719 1.75-3.394531 2.832031-9.242188 3.558593-13.722657 5.226562-2.429687.90625-4.449218 3.167969-5.480468 3.707031 1.191406-2.441406 3.023437-3.242187 4.003906-3.847656 1.742188-1.078125 3.261719-2.136719 4.855469-2.550781 2.652343-.695313 4.3125-.894532 6.246093-2.449219 4.667969-3.75 7.285157-5.492187 11.8125-6.527344-.195312-.839843-8.148437-2.214843-11.546874-2.109375-3.554688.105469-9.359376 1.386719-13.664063.789063-1.558594-.214844-2.882813-.738281-4.351563-1.074219s-3.226562.300781-4.84375.84375c1.402344-1.386719 4.273438-1.765625 6.476563-1.546875 2.203125.210937 4.226563.832031 6.554687.707031 3.414063-.179687 6.761719-1.921875 10.191407-2.183594 4.5-.347656 7.964843 1.917969 12.46875 1.578126 2.511719-.191407 4.855469-1.378907 7.378906-1.882813 6.296875-1.257813 16.730469 1.214844 25.800781.484375 4.6875-.378906 10.03125-.164062 14.027344-2.046875 3.222656-1.523437 9.871094-8.355469 10.222656-9.273437 1-2.628907-3.523437-4.613282-6.992187-4.082032s-6.089844 1.257813-9.566407 1.757813c-4.207031.605469-8.710937.28125-12.925781-.144531-3.464843-.351563-10.691406-.96875-14.179687-.601563-6.074219.632813-8.449219 2.21875-14.519532 2.875 3.421876-1.136719 6.90625-2.167969 10.277344-3.398437 4.0625-1.484376 9.78125-1.066407 12.128906-.992188 23.589844.761719 22.515626-6 36.585938-7.246094 6.519531-.566406 17.921875-.734375 24.460938-.414062 4.285156.203125 8.578124 1.75 12.871093 1.78125 2.214844.011718 4.433594.011718 6.648438.007812 1.070312-.003906 2.398437-2.511718 2.824219-1.867187 2.023437-.363281 6.199218 1.375 6.730468 1.253906.25-.058594.519532-.027344.777344 0 2.953125.328125 6.289062.082031 9.101562.753906 2.277344.542969 6.386719 2.074219 7.6875 3.707031 3.167969 2.140626 6.253907 4.554688 10.242188 5.566407 1.675781.425781 3.457031.585937 5.078125 1.125 3.570313 1.183593 5.824219 3.984375 9.214844 5.453125 3.320312 1.4375 7.335937 1.441406 11.078125 1.125 3.738281-.320313 7.484375-.917969 11.246094-.5625 3.761718.355468 7.675781 1.914062 9.082031 4.582031-3.382813-3.207031-9.730469-3.265625-14.957031-2.503906-5.230469.757812-10.832032 2-15.761719.308593-3.652344-1.253906-6.3125-3.96875-10.121094-4.90625-1.347656-.332031-3.039063-.34375-3.890625.5-.769531.757813-.351562 1.835938-.082031 2.789063 1.328125 4.664063 3.96875 5.21875 6.839843 7.285156 2.070313 1.492188 4.328126 2.101563 6.894532 3.027344 4.292968 1.546875 9.136718 2.5 13.816406 2.992187 4.679688.488282 9.601562 1.425782 12.925781 3.996094 1.914063 1.480469 3.136719 3.378906 4.921875 4.941406 4.097656 3.582032 10.03125 5.90625 11.816406 10.371094 1.011719 2.527344 1.117188 4.769532 1.191407 7.390625.074219 2.546875 1.238281 5.078125 3.285156 7.117188-2.339844-2.425781-4.460937-4.109375-5.394531-7.023438-1.027344-3.226562-.382813-6.496093-3.246094-9.058593-2.460938-2.203126-6.828125-5.34375-9.5625-7.382813-1.726562-1.289063-2.902344-2.1875-4.492188-3.578125-3.570312-3.128906-7.953124-3.425781-13.257812-4.34375-5.300781-.917969-11.8125-2.601562-16.910156-4.078125s-10.261719-5.265625-11.816406-9.273437c-.714844-1.839844-.382813-2.839844-1.183594-4.660157-1.429688-3.234375-5.257813-5.542969-9.25-7.085937-3.988282-1.539063-5.863282-3.1875-12.734375-3.183594-1.472657 0-9.09375-1.042969-12.273438 2.058594-1.714843 1.675781.121094 3.667968 1.550781 5.523437 3.269532 4.234375 9.324219 6.585938 14.695313 9.25 5.375 2.664063 10.75 6.445313 11.070313 11.328125.183593 2.78125-.082032 5.386719-1.785157 8.199219-1.523437 2.519531-3.371093 4.652344 2.375 6.136719 3.039063.785156 8.28125.242187 11.230469 1.210937 3.132812 1.03125 4.570312 3.421875 7.101562 5.160157 3.480469 2.390624 8.226563 2.242187 12.875 2.558593 7.109376.480469 13.449219 4.507813 15.820313 9.539063-1.414063-2.015625-4.511719-3.136719-7.066406-4.480469-5.761719-3.035156-13.285157-1.746094-17.816407-2.726563 1.671876 3.738282-.761718 10.09375-1.945312 13.953126-1.308594 4.257812.972656 4.226562 1.429688 9.472656.324218 3.671875-1.679688 8.019531-6.167969 9.40625 2.746093-1.769532 3.390625-4.828125 3.03125-7.539063-.359375-2.710937-1.523438-5.34375-1.617188-8.070312-.199219-5.628907 4.769531-12.378907.582031-16.988281-3.078124-3.394532-3.902343-6.105469-8.824218-7.363282-7.242188-1.863281-14.910156-.320312-17.285156-4.984375-1.042969-2.046875 1.039062-4.953125 1.597656-7.105469 3.253906-12.46875-11.542969-15.066406-12.699219-14.199218-1.640625 1.226562 1.996094 5.070312-.566406 8.707031-1.730469 2.453125-5.964844 3.59375-6.921875 6.300781-.890625 2.511719 1.960937 4.824219 2.796875 7.34375 1.742187 5.230469-5.347657 10.679688-2.949219 15.753906 2.300781 4.859376 10.855469 5.132813 16.648438 7.667969 8.625 3.777344 10.234374 14.34375 3.019531 19.703125 4.867187-7.121094 2.984375-15.246094-5.140625-17.160156-3.570313-.835938-7.828125-1.589844-11.074219-3.011719-3.175781-1.390625-5.359375-5.867187-9.019531-5.9375-2.726563-.050781-4.746094 5.316407-6.0625 7.183594-1.320313 1.867187-1.984375 3.984375-3.363282 5.824219-2.257812 3.011718-6.503906 5.652344-5.933593 9.09375.28125 1.707031.660156 2.941406.695312 5.003906-2.921875-3.121094-3.175781-7.640625-.609375-10.996094 1.566406-2.046875 4.078125-3.695312 4.953125-5.972656.578125-1.5 2.761719-7.644531 3.636719-9.050781 3.175781-5.101563 6.828125-4.113281 9.164062-9.464844 4.808594-10.996094-5.402343-10.363281-3.179687-15.371094 1.957031-4.417969 10.164063-6.84375 9.386719-11.457031-.535156-3.179688-5.183594-4.882812-7.121094-7.722656-.84375-1.238282-1.148438-2.664063-2.019531-3.890625-1.492188-2.109375-4.726563-3.398438-7.8125-3.109375-3.085938.289062-3.855469 2.980468-4.664063 5.304687-1.777344 5.117188 3.261719 9.40625 1.402344 14.507813-.578125 1.582031-1.996094 3.042968-1.863281 4.683594.128906 1.546874 1.597656 2.789062 2.554687 4.144531 2.199219 3.113281 1.542969 7.300781-1.550781 9.945312-3.148437 2.695313-8.035156 3.578125-12.160156 5.300781-4.121094 1.726563-7.90625 5.417969-6.054688 8.734376-2.527343-2.792969-2.144531-6.976563.875-9.503907 2.515625-2.105469 6.277344-2.925781 9.511719-4.308593 3.234375-1.382813 6.300781-4.003907 5.441406-6.78125-.746094-2.417969-4.226562-3.972657-4.585937-6.449219-.15625-1.058594-.179688-2.203125.363281-3.1875 4.636719-8.34375-1.25-15.519531-14.355469-6.800781-4.367187 2.910156-.753906 8.167968-4.175781 10.242187-3.925781 2.378906-14.191406-.679687-16.453125 2.773437-2.125 3.25 5.421875 9.324219 5.21875 12.957032-.203125 3.652344-4.609375 6.421875-5.601563 10-1.378906 4.96875 4.046876 9.417968 5.125 14.414062.933594 4.308594-1.769531 8.992188-6.539062 11.332032 4.253906-2.550782 4.027344-7.636719 2.28125-11.5625-1.746094-3.929688-4.617188-7.75-4.25-11.910157.332031-3.785156 3.320312-7.15625 4.242188-10.886719.921874-3.734374-1.949219-7.609374-6.765626-8.148437-11.628906-1.292969-7.25 9.246094-12.230468 13.34375-4.671875 3.835937-16.671875 6.261719-16.652344 13.472656.003906 3.269531.4375 7.503907 4.050781 9.164063-7.144531-2.820313-9.398437-11.074219-4.324219-15.976563 4.199219-4.054687 17.367188-8.6875 15.21875-12.617187.695313 1.273437-11.867187 2.285156-22.109374.132812-6.027344-1.269531-12.332032 1.632813-14.011719 6.304688 1.410156-3.921875 4.480469-6.9375 8.886719-7.898438 4.40625-.960937 7.695312-.070312 12.238281.125 4.542969.195313 10.769531.785156 13.972656-1.765625 2.355469-1.875 2.234375-5.707031 5.054687-7.144531 2.59375-1.324219 6.15625-1.179688 8.535157-2.730469 1.859375-1.210937 2.558593-3.1875 4.144531-4.617187 4.726562-4.273438 16.285156 1.871094 16.589844-3.710938.390625-7.117187 6.03125-10.765625 11.667968-12.039062 3.707032-.839844 7.460938-2.230469 9.453126-4.796875 1.996093-2.558594 1.609374-6.351563-1.582032-8.015625-3.203125-1.667969-7.734375-.589844-10.644531 1.414062-2.90625 2-4.769531 4.742188-7.246094 7.070313-5.910156 5.554687-16.902343 7.519531-26.039062 6.683593-2.675781-.261718-19-1.40625-22.863281 12.238282-.972657 3.425781-2.984376 7.199218-7.132813 8.640625-4.96875 1.71875-11.484375-3.566407-16.359375-1.664063-4.03125 1.570313-4.726562 7.886719-7.113281 10.824219-2.675781 3.292969-7.910157 4.164063-12.453125 5.847656 6.921875-2.558593 10.453125-6.90625 12.664062-10.863281 2.515625-4.5 3.925782-10.507812 11.351563-8.996094" fill="#3c3c3c"/></g><g fill="#3c3c3c"><path d="m288.933594 173.011719 1.1875-.445313.546875.171875c5.46875 1.730469 10.269531 2.96875 14.671875 3.785157 4.3125.777343 8.714844 1.328124 13.160156 1.65625-1.289062-.191407-2.574219-.402344-3.839844-.625-4.949218-.886719-10.730468-2.429688-17.183594-4.582032l-4.480468-1.496094 5.605468-2.074218c16.582032-6.078125 27.3125-13.730469 34.214844-20.671875-5.828125 3.898437-12.625 7.234375-19.265625 10.207031l-2.972656 1.332031.667969-3.183593c1.003906-4.800782 2.351562-8.824219 4.011718-11.96875-.878906 1.269531-1.707031 2.636718-2.453124 4.101562-1.460938 2.855469-2.667969 6.5-3.582032 10.832031l-.179687.851563-.804688.335937c-9.480469 3.972657-19.734375 7.824219-29.648437 11.546875-9.941406 3.734375-19.328125 7.261719-27.347656 10.675782l-4.601563 1.957031 2.519531-4.324219c1.789063-3.074219 3.28125-5.933594 4.554688-8.75 1.804687-3.996094 3.671875-9.058594 5.644531-14.421875l.511719-1.394531 1.058594-.085938c5.359374-.433594 9.757812-1.097656 13.441406-2.027344 1.234375-.308593 2.433594-.648437 3.597656-1.011718-4.132812.890625-9.210938 1.507812-15.140625 1.839844l-2.539063.144531.890626-2.382813c3.636718-9.726562 9.15625-24.5 18.1875-36.699218-5.902344 5.546874-11.648438 12.75-15.554688 21.847656-.445312 1.03125-.875 2.046875-1.292969 3.050781l-1.894531 4.546875-1.246094-4.765625c-1.441406-5.527344-2.265625-10.488281-2.449218-14.746094-.113282-2.6875-.113282-6.300781.277343-10.5-1.171875 5.5625-1.792969 11.863281-1.296875 18.6875.320313 4.40625 1.292969 9.492188 2.898438 15.113281l.152344.539063-.363282.941406c-5.042968 12.949219-8.636718 24.394531-19.597656 37.636719l-1.808594 1.386719c-6.261718 3.332031-12.488281 7.265625-18.503906 11.683593l-2.054688 1.511719-.546874-2.492187c-1.851563-8.378906-2.660157-15.792969-2.40625-22.03125.152343-3.773438.640624-9.128906 1.976562-15.363282-2.488281 7.273438-4.355469 15.796876-4.453125 25.121094-.054687 4.847656.523437 10.421875 1.710937 16.566406l.191407.976563-.769531.628906c-7.054688 5.730469-12.21875 10.867188-15.3125 14.164063l-2.101563 2.242187-.722656-2.988281c-1.101563-4.542969-2.109375-9.988281-2.917969-14.367188-.707031-3.808593-1.3125-7.101562-1.714844-8.378906-1.890625-5.992187 1.613282-42.578125 9.179688-65.902344l.121094-.378906 1.085937-1.078125c3.941406-3.925781 7.054687-7.027343 10.96875-10.703125l2.054687-1.972656c8.316407-7.980469 20.261719-19.441406 30.8125-33.996094-4.53125 5.761719-9.796874 11.511719-15.898437 16.945313-8.4375 7.5625-16.265625 14.746093-23.273437 21.355469l-4.761719 3.980468c.882812-2.542968 3.8125-10.785156 4.6875-13.234375 3.488281-9.867187 9.527343-26.953125 11.757812-47.578125-.988281 6.476563-2.503906 13.15625-4.726562 19.847656l-.84375 2.535157-3.269531-3.230469c-4.226563-4.160156-7.875-7.753906-10.457032-12.175781-1.085937-1.859375-2.160156-3.757813-3.175781-5.742188 1.324219 3.074219 3.015625 6.308594 5.160156 9.671875 1.953125 3.074219 5.515625 7.480469 10.308594 12.742188l.675781.742187-2.570312 7.03125c-13.378906 36.570313-23.046875 62.996094-26.078125 83.246094l-.667969 4.441406-2.382812-3.808593c-5.972657-9.542969-11.585938-20.046876-16.683594-31.226563l-.382813-.839844.507813-.765625c3.417968-5.164062 6.058594-9.910156 7.84375-14.117187 3.96875-9.304688 5.382812-18.015625 5.554687-25.398438-1.09375 7.117188-3.039062 13.089844-4.59375 17.070313-1.917969 4.917968-5.042969 10.621094-9.277343 16.941406l-1.707032 2.546875-1.199218-2.824219c-4.605469-10.824218-8.804688-22.355468-12.480469-34.285156l-.238281-.773438.46875-.667968c3.546874-5.054688 6.0625-9.402344 7.699218-13.292969 1.472656-3.496094 2.449219-6.863281 3.0625-10.03125-.511718 1.707031-1.039062 3.199219-1.515625 4.429687-1.628906 4.214844-4.429687 9.1875-8.328125 14.777344l-1.988281 2.851563-.96875-3.335938c-4.527344-15.570312-7.558594-29.621093-9.511719-40.6875.402344 6.523438 1.292969 14.382813 3.082032 23.714844l.761718 3.972656-3.332031-2.289062c-7.320313-5.03125-12.84375-9.585938-16.875-13.925781-.222656-.242188-.449219-.488282-.671875-.738282 1.859375 2.429688 3.9375 4.839844 6.257812 7.195313 3.71875 3.800781 8.527344 7.742187 14.699219 12.050781l.53125.371094.140625.628906c2.644532 11.839844 6.441406 24.757812 11.285156 38.382812l1.253907 3.53125-3.457031-1.441406c-13.621094-5.671875-46.957032-20.535156-62.273438-36.035156-.371094-.378906-.738281-.769531-1.101562-1.167969 1.945312 2.480469 4.140624 4.9375 6.617187 7.316407 14.5625 13.996093 40.375 26.949218 59.222656 36.402343l1.023438.511719.230469.601562c.75 1.972657 1.507812 3.976563 2.277343 6.015626 4.359375 11.542968 9.296875 24.628906 16.011719 38.734374l1.460938 3.070313-3.320313-.734375c-9.566406-2.125-15.566406-4.675781-22.515625-7.625l-1.234375-.527344c-9.003906-3.816406-17.472656-8.433594-25.0625-13.601562 8.386719 7.207031 19.894531 15.0625 34.859375 21.085937 2.359375.960938 4.195312 1.859375 5.96875 2.730469 3.285156 1.613281 6.128906 3.007812 11.296875 4.222656l.757813.179688.347656.695312c.613281 1.234375 5.15625 26.472656 5.203125 26.722656l.523437 2.835938c.15625.453125-3.273437-1.324219-3.238281-1.300781-.433594-.3125-3.289063-1.816407-6.59375-3.558594-20.839844-10.976563-76.199219-40.128906-97.425781-65.347656-2.476563-3.089844-4.777344-6.644531-6.855469-10.554688 2.933594 6.34375 6.882813 12.875 12.183594 19.144531 12.460937 14.824219 31.574219 26.046876 50.058593 36.898438l6.605469 4.679688-6.460937-.867188c-31.175782-5.375-58.519532-13.363281-81.664063-23.835938 9.007813 4.707032 21.4375 9.996094 38.765625 15.324219l4.203125 1.292969-4.15625 1.867188c-2.953125 1.003906-5.714843 1.765624-8.210937 2.269531-2.078125.417969-4.1875.765625-6.328125 1.039062 5.261719-.167969 10.4375-.792969 15.421875-1.859375.746094-.160156 5.664062-2.207031 6.148437-2.433594 14.871094 4.449219 32.867188 9.089844 55.011719 14.183594l.273438.0625.238281.152344c3.214843 2.023438 6.042969 3.902344 8.648437 5.734375l3.679688 2.589844-4.480469.421875c-4.382813.410156-8.742187 1.5625-12.949219 3.421875-2.148437.949219-4.167968 2.242187-6.304687 3.605469-1.628907 1.042968-3.316407 2.121093-5.132813 3.089843-8.433594 4.484375-17.722656 6.160157-24.511718 7.382813-3.824219.683594-7.789063 1.203125-11.78125 1.550781h.121093c7.304688 0 14.585938-.675781 21.609375-2.003906l.125-.03125 5.667969-.871094-4.355469 3.832031c-5.226562 3.925782-10.988281 7.992188-17.453125 10.910156 3.441407-1.160156 7.476563-2.832031 12.164063-5.214843 2.789062-1.421875 5.703125-2.992188 8.519531-4.507813 12.089844-6.511718 24.585937-13.246094 35.605469-13.246094 7.695312 0 13.96875 3.390626 18.644531 10.074219 4.566406 6.515625 5.660156 14.992188 6.082031 20.800781 1.929688 26.464844-2.726562 57.394532-17.109375 70.429688 3.144531.28125 7.171875 2.390625 10.238281 2.390625.84375 0 4.363282 1.679687 4.996094 1.640625 13.539063-.933594 24.460938-2.707031 37.769532-3.324219-2.539063-7.796875-10.523438-35.925781-8.085938-53.984375 4.117188-30.421875 27.152344-33.941406 44.125-33.941406 1.84375 0 3.78125.042969 6.082031.125l.679688.023438.464843.492187c2.441407 2.566406 4.851563 4.78125 7.160157 6.582031 3.976562 3.089844 8.15625 5.621094 12.195312 7.679688-2.527343-1.757813-4.714843-3.398438-6.453125-4.707032-2.085937-1.5625-4.351562-3.738281-7.121094-6.835937l-2.742187-3.066406 4.101563.304687c1.507812.113282 3.039062.234375 4.597656.355469 4.890625.390625 9.945312.792969 15.363281.984375 2.621094.109375 5.15625.164062 7.535156.164062 3.398438 0 6.398438-.109374 9.046875-.300781-10.230468-.007812-21.175781-1.847656-31.757812-3.632812-7.3125-1.230469-14.875-2.503907-21.976563-3.121094l-6.019531-.523437 5.441406-2.625c2.261719-1.09375 4.378906-2.261719 6.355469-3.464844-5.253906 2.34375-9.933594 3.78125-13.273437 4.628906-3.496094.867188-10.632813 2.253906-13.320313 2.777344-.417969.082031-.925781.183594-.925781.183594-11.164063 2.375-18.15625 7.265624-22.054688 10.949218l-2.152344 2.035156-.746093-3.527343c-.996094-4.699219-1.859375-8.757813-.789063-11.820313 4.179688-12.011718 22.773438-29.039062 34.640625-37.292968l.601563-.417969 4.785156 1.082031c21.050781 4.769531 47.25 10.703125 67.226562 10.703125 1.179688-.007813 2.34375-.03125 3.488282-.070313-17.210938-.816406-42.140625-5.613281-68.132813-13.183593l-3.664062-1.066407 3.28125-1.953124c13.464843-8.023438 27.941406-13.417969 44.703125-19.667969"/><path d="m126.457031 9.429688c-.007812.042968-11.558593 15.617187 5.664063 27.328124-.003906.046876 11.71875-14.9375-5.664063-27.328124"/><path d="m6.375 134.34375c.011719.058594-1.359375 12.566406 14.878906 11.601562.015625.066407 1.644532-12.742187-14.878906-11.601562"/><path d="m23.609375 121.492188c.007813.039062-.703125 10.03125 12.320313 9.113281.011718.042969.960937-10.097657-12.320313-9.113281"/><path d="m142.027344 14.113281s-8.128906 7.398438-.421875 15.769531c-.003907 0 8.125-6.976562.421875-15.769531"/><path d="m147.578125 9.371094c-.003906.007812-2.171875 5.808594 4.367187 9.886718.417969-1.871093 2.191407-5.679687-4.367187-9.886718"/><path d="m193.863281 6.664062c-.007812-.054687-16.449219 10.199219-5.117187 27.960938-.003906-.058594 16.324218-9.382812 5.117187-27.960938"/><path d="m211.183594 3.65625c-.007813.007812-11.445313 13.992188 5.996094 28.210938-.011719.007812 11.605468-13.1875-5.996094-28.210938"/><path d="m114.679688 29.785156c0 .082032-8.40625 16.863282 11.199218 25.292969 0 .082031 8.695313-16.429687-11.199218-25.292969"/><path d="m151.15625 26.78125c-.011719-.082031-18.777344 7.875-12.667969 26.914062-.007812-.074218 18.457031-7.15625 12.667969-26.914062"/><path d="m166.402344 30.234375c-.007813-.046875-13.925782 5.394531-9.417969 19.664063-.003906-.042969 13.691406-4.902344 9.417969-19.664063"/><path d="m202.546875 34.121094c-.003906-.050782-13.945313 4.476562-9.476563 19.039062-.003906-.046875 13.703126-4.027344 9.476563-19.039062"/><path d="m165.097656 5.34375c-.007812-.054688-13.949218 5.449219-9.433594 19.699219-.003906-.050781 13.714844-4.953125 9.433594-19.699219"/><path d="m176.511719 55.964844c0-.058594-14.878907 1.828125-14.789063 16.851562 0-.050781 14.507813-1.542968 14.789063-16.851562"/><path d="m206.023438 42.027344c-.003907.011718-6.679688 9.285156 5.546874 16.546875-.003906.011719 6.820313-8.867188-5.546874-16.546875"/><path d="m49.734375 61.53125c.007813.046875-2.773437 11.136719 10.960937 11.0625.007813.046875 3.011719-11.109375-10.960937-11.0625"/><path d="m172.042969 75.402344c0-.042969-12.777344 1.015625-12.007813 13.664062 0-.035156 12.480469-.753906 12.007813-13.664062"/><path d="m231.964844 26.410156c0-.046875-12.8125-.402344-12.105469 12.289063 0-.039063 12.519531.570312 12.105469-12.289063"/><path d="m187.058594 76.402344c0-.023438-10.324219 1.269531-8.800782 11.503906 0-.023438 10.109376-1.023438 8.800782-11.503906"/><path d="m187.148438 55.050781c0 .027344-.53125-9.222656-12.289063-8.726562 0 .03125.257813 8.867187 12.289063 8.726562"/><path d="m189.46875 66.085938c0 .023437-.460938-8.039063-10.710938-7.667969 0 .019531.222657 7.75 10.710938 7.667969"/><path d="m193.335938 72.4375c0 .011719-2.644532-6.027344-10.304688-3.515625 0 .011719 2.40625 5.839844 10.304688 3.515625"/><path d="m202.296875 86.546875c0 .019531-3.523437-8.109375-13.753906-4.851563 0 .023438 3.210937 7.820313 13.753906 4.851563"/><path d="m179.871094 65.917969c-.003906-.019531-9.597656 3.679687-5.113282 13.160156-.003906-.019531 9.46875-3.34375 5.113282-13.160156"/><path d="m206.582031 27.992188c-.003906.019531-4.183593 8.160156 6.535157 12.933593-.003907.015625 4.347656-7.859375-6.535157-12.933593"/><path d="m173.148438.253906c0 .019532-4.171876 8.421875 6.589843 12.566406-.003906.019532 4.335938-8.15625-6.589843-12.566406"/><path d="m111.257812 15.382812c0 .027344-4.105468 8.832032 6.59375 11.691407 0 .023437 4.261719-8.613281-6.59375-11.691407"/><path d="m167.804688 108.9375c0 .007812 7.820312-9.074219-3.453126-16.679688-.003906.007813-7.890624 8.71875 3.453126 16.679688"/><path d="m185.375 43.394531c0 .039063 2.394531-11.128906-11.789062-13.511719-.003907.035157-2.652344 10.683594 11.789062 13.511719"/><path d="m179.507812 100.257812c0-.027343 11.09375-.542968 10.527344-11.511718 0-.027344-10.859375.222656-10.527344 11.511718"/><path d="m135.988281 151.503906c0-.023437 11.019531-1.203125 10.421875-12.132812-.003906-.019532-10.792968.90625-10.421875 12.132812"/><path d="m160.074219 58.53125c-.003907-.03125 11.121093-.894531 10.539062-11.851562-.003906-.03125-10.894531.582031-10.539062 11.851562"/><path d="m166.695312 26.515625c0-.035156 11.15625-.777344 10.578126-11.738281 0-.035156-10.921876.453125-10.578126 11.738281"/><path d="m158.054688 109.527344c-.003907.03125-5.238282 11.066406 8.644531 16.039062 0 .027344 5.453125-10.738281-8.644531-16.039062"/><path d="m143.703125 65.882812c-.003906.03125-5.238281 11.179688 8.6875 15.789063 0 .03125 5.453125-10.882813-8.6875-15.789063"/><path d="m146.339844 54.328125c0 .027344-3.039063 9.640625 9.132812 12.195313 0 .027343 3.257813-9.441407-9.132812-12.195313"/><path d="m200.847656 56.371094c-.003906.023437-5.296875 10.695312 8.628906 16.613281-.003906.023437 5.515626-10.320313-8.628906-16.613281"/><path d="m203.160156 151.855469c-.003906.007812-6.621094 9.417969 5.5 16.441406-.003906.007813 6.757813-9.007813-5.5-16.441406"/><path d="m207.773438 141.960938c0 .007812-4.148438 8.222656 6.472656 12.824218-.003906.011719 4.308594-7.921875-6.472656-12.824218"/><path d="m198.035156 166.289062c-.003906.019532-5.25 10.800782 8.554688 16.464844-.003906.019532 5.464844-10.417968-8.554688-16.464844"/><path d="m197.851562 182.949219c0 .019531-5.238281 10.8125 8.546876 16.445312-.003907.015625 5.457031-10.429687-8.546876-16.445312"/><path d="m188.5625 121.824219c0-.039063-13.414062-1.164063-15.027344 12.195312 0-.035156 13.042969 1.316407 15.027344-12.195312"/><path d="m178.929688 113.644531c.003906-.027343 12.460937 3.21875 16.761718-8.960937.003906-.027344-12.085937-3.636719-16.761718 8.960937"/><path d="m215.246094 87.644531c.003906-.027343 12.429687 4.019531 16.882812-7.777343.003906-.023438-12.042968-4.460938-16.882812 7.777343"/><path d="m219.742188 74.90625c.003906-.035156 12.941406 2.039062 14.628906-10.472656.003906-.035156-12.609375-2.46875-14.628906 10.472656"/><path d="m220.257812 60.78125c0-.035156 12.878907 2.582031 15.222657-9.769531.003906-.039063-12.535157-3.027344-15.222657 9.769531"/><path d="m221.3125 48.429688c.003906-.039063 12.890625 2.640624 15.238281-9.699219.003907-.035157-12.542969-3.089844-15.238281 9.699219"/><path d="m269.621094 20.136719c-.003906-.046875-12.078125 5.972656-3.417969 20.175781 0-.046875 11.980469-5.421875 3.417969-20.175781"/><path d="m256.8125 100.703125c.003906.011719-10.324219-8.808594-21.527344-.433594 0 .019531 9.851563 8.355469 21.527344.433594"/><path d="m248.433594 109.640625c.007812 0-11.617188-7.164063-20.933594 3.023437.003906.007813 11.148438 6.824219 20.933594-3.023437"/><path d="m233.824219 119.707031c.003906-.007812-12.089844-6.175781-20.511719 4.847657.003906-.003907 11.613281 5.921874 20.511719-4.847657"/><path d="m251.777344 45.300781c0-.027343-9.804688 5.988281-.722656 16.730469-.003907-.023438 9.78125-5.523438.722656-16.730469"/><path d="m280.269531 44.371094c.003907-.023438-11.359375-4.65625-15.007812 5.941406.003906-.019531 11.019531 4.527344 15.007812-5.941406"/><path d="m257.445312 33.027344c0-.007813-7.003906 5.746094 1.542969 13.816406-.003906-.007812 7.039063-5.359375-1.542969-13.816406"/><path d="m282.949219 97.167969c0-.023438-8.570313 3.683593-2.242188 13.054687 0-.023437 8.507813-3.339844 2.242188-13.054687"/><path d="m291.265625 89.9375c0-.023438-8.554687 3.507812-2.242187 12.957031 0-.023437 8.5-3.167969 2.242187-12.957031"/><path d="m200.742188-.00390625s-6.851563 6.36328125 1.574218 13.48046825c-.003906-.003906 6.890625-6-1.574218-13.48046825"/><path d="m315.152344 57.085938c.003906-.042969-11.421875.371093-7.632813 12.355468.003907-.042968 11.238281-.144531 7.632813-12.355468"/><path d="m322.011719 118.890625c0-.015625-6.703125 4.890625 1.425781 13.109375 0-.019531 6.730469-4.519531-1.425781-13.109375"/><path d="m356.160156 135.3125c.007813-.015625-9.753906-3.339844-10.957031 5.753906.003906-.011718 9.519531 3.296875 10.957031-5.753906"/><path d="m346.007812 94.195312c.011719-.035156-11.640624-3.546874-12.296874 7.566407.007812-.027344 11.375 3.488281 12.296874-7.566407"/><path d="m334.585938 76.851562c.007812-.039062-11.207032-1.4375-9.417969 9.886719.007812-.039062 10.988281 1.535157 9.417969-9.886719"/><path d="m351.875 146.066406c.003906 0-9.039062-5.472656-13.476562 2.234375.003906.003907 8.761718 5.292969 13.476562-2.234375"/><path d="m335.496094 132.53125c.003906-.03125-9.167969 1.128906-5.144532 10.871094.003907-.03125 9.039063-.902344 5.144532-10.871094"/><path d="m300.308594 45.316406c0-.019531-7.394532 4.273438.101562 13.078125 0-.015625 7.390625-3.90625-.101562-13.078125"/><path d="m282.167969 31.585938c.003906-.03125-9.960938-.464844-8.367188 9.570312.003907-.027344 9.765625.613281 8.367188-9.570312"/><path d="m325.148438 140.390625c.003906-.027344-9.195313 1.363281-5.160157 11.078125.003907-.027344 9.070313-1.132812 5.160157-11.078125"/><path d="m339.488281 164.488281c-.003906.027344-5.839843-8.042969-14.878906-4.199219 0 .023438 5.535156 7.769532 14.878906 4.199219"/><path d="m331.5625 172.105469c0 .027343-3.683594-8.601563-14.074219-6.964844 0 .03125 3.394531 8.324219 14.074219 6.964844"/><path d="m314.875 186.203125c-.003906.023437-3.707031-8.5625-14.132812-6.542969 0 .023438 3.40625 8.300782 14.132812 6.542969"/><path d="m331.082031 188.824219c-.003906.023437-3.683593-8.550781-14.070312-6.789063-.003907.027344 3.390625 8.289063 14.070312 6.789063"/><path d="m346.011719 168.308594c.003906-.019532-9.835938-1.847656-9.644531 7.6875.003906-.019532 9.617187 1.890625 9.644531-7.6875"/><path d="m348.476562 184.386719c0 .015625-7.363281-7.097657-14.804687-1.453125 0 .019531 7.054687 6.855468 14.804687 1.453125"/><path d="m346.515625 155.011719c.003906.007812-8.257813-6.453125-14.390625.214843 0 .011719 7.960938 6.230469 14.390625-.214843"/><path d="m287.121094 162.273438c0 .019531-5.355469-8.082032-14.929688-4.003907 0 .023438 5.035156 7.828125 14.929688 4.003907"/><path d="m297.679688 159.253906c0 .019532-5.320313-8.144531-14.898438-4.269531 0 .023437 5.003906 7.878906 14.898438 4.269531"/><path d="m306.257812 153.960938c0 .019531-4.8125-7.429688-13.488281-4.085938 0 .023438 4.53125 7.195312 13.488281 4.085938"/><path d="m309.625 145.835938c0 .003906-5.523438-4.300782-9.941406.347656.003906.003906 5.304687 4.207031 9.941406-.347656"/><path d="m286.433594 133.671875c0-.039063-11.230469 3.472656-4.886719 15.378906 0-.039062 11.101563-3.101562 4.886719-15.378906"/><path d="m295.792969 130.675781c0-.027343-9.046875 2.789063-3.726563 12.476563 0-.023438 8.949219-2.492188 3.726563-12.476563"/><path d="m274.617188 137.601562c0-.023437-9.078126 3.152344-3.726563 12.746094 0-.023437 8.984375-2.84375 3.726563-12.746094"/><path d="m235.871094 70.824219c-.003906-.007813-6.996094 6.136719 1.5625 13.828125-.003906-.007813 7.035156-5.761719-1.5625-13.828125"/><path d="m217.222656 90.96875c-.003906-.003906-6.988281 6.40625 1.582032 13.832031 0-.003906 7.027343-6.039062-1.582032-13.832031"/><path d="m241.585938 56.355469c-.003907-.011719-8.988282 7.910156 2.203124 17.933593-.003906-.011718 9.039063-7.402343-2.203124-17.933593"/><path d="m245.011719 89.714844c.003906.003906 10.527343 7.601562 19.160156-1.46875.003906.007812-10.054687-8.007813-19.160156 1.46875"/><path d="m219.285156 149.78125c.003906-.0625 17.1875-2.878906 12.546875-20.183594.003907-.066406-16.917969 2.347656-12.546875 20.183594"/><path d="m294.53125 102.945312c.011719-.050781 17.289062 5.71875 20.914062-10.019531.015626-.046875-16.765624-6.503906-20.914062 10.019531"/><path d="m308.097656 87.386719c.015625-.089844 17.332032 1.761719 14.917969-15.421875.011719-.089844-16.988281-2.417969-14.917969 15.421875"/><path d="m301.441406 141.410156c.007813-.078125 16.734375-1.476562 11.21875-18.707031.011719-.078125-16.488281.910156-11.21875 18.707031"/><path d="m328.871094 130.953125c.007812-.046875 12.296875-.425781 8.25-13.175781.007812-.046875-12.109375.03125-8.25 13.175781"/><path d="m306.6875 120.75c.003906-.046875 12.382812-.859375 8.304688-13.671875.003906-.046875-12.203126.46875-8.304688 13.671875"/><path d="m345.296875 131.621094c.011719-.085938 14.632813-2.65625 6.265625-18.917969.011719-.085937-14.511719 2.21875-6.265625 18.917969"/><path d="m286.28125 62.4375c0-.054688 13.183594-6.582031 1.5-21.796875 0-.054687-13.167969 6.222656-1.5 21.796875"/><path d="m224.519531 23.347656c0-.046875 12.367188-1.910156 8.664063-14.394531.003906-.046875-12.175782 1.554687-8.664063 14.394531"/><path d="m257.453125 29.734375c-.007813.011719 5.980469-8.980469-6.671875-16.6875-.003906.011719-6.125 8.648437 6.671875 16.6875"/><path d="m265.765625 89.496094c.011719-.054688 17.421875 5.03125 21.0625-11.144532.011719-.054687-16.917969-5.792968-21.0625 11.144532"/><path d="m251.367188 78.480469c0 .003906 9.746093 7.167969 17.746093-1.113281.003907.007812-9.3125-7.523438-17.746093 1.113281"/><path d="m258.152344 68.574219c.003906-.007813 10.667968 6.121093 16.972656-3.1875.003906 0-10.253906-6.515625-16.972656 3.1875"/><path d="m288.257812 63.761719c.003907-.042969-11.734374-.117188-9.363281 11.789062.003907-.039062 11.507813.300781 9.363281-11.789062"/><path d="m317.878906 105.015625c.011719-.082031 17.089844 2.089844 14.535156-14.757813.015626-.085937-16.75-2.730468-14.535156 14.757813"/><path d="m322.425781 115.390625c.011719-.039063 16.386719 6.109375 19.382813-8.640625.015625-.039062-15.886719-6.839844-19.382813 8.640625"/><path d="m263.269531 58.746094c.003907-.007813 10.667969 6.246094 16.96875-2.949219.003907-.003906-10.246093-6.644531-16.96875 2.949219"/><path d="m233.125 150.292969c0-.015625-10.125-2.125-12.195312 7.820312.003906-.011719 9.832031 2.199219 12.195312-7.820312"/><path d="m217.304688 178.386719c.003906-.019531 11.894531 2.84375 15.074218-8.699219.003906-.023438-11.554687-3.21875-15.074218 8.699219"/><path d="m217.789062 187.753906c.003907-.011718 11.679688 4.535156 17.054688-6.660156 0-.007812-11.292969-4.902344-17.054688 6.660156"/><path d="m218.8125 167.40625c.003906-.015625 10.191406 2.433594 12.859375-7.453125.003906-.015625-9.894531-2.734375-12.859375 7.453125"/><path d="m278.738281 94.046875c.003907-.011719-9.277343-4.875-13.910156 3.625.003906-.007813 8.964844 4.75 13.910156-3.625"/><path d="m262.617188 107.683594c.003906 0 9.082031 5.292968 14.632812-2.703125.003906 0-8.726562-5.574219-14.632812 2.703125"/><path d="m287.1875 111.207031c.003906 0 9.035156 5.582031 14.558594-2.085937.003906.003906-8.667969-5.867188-14.558594 2.085937"/><path d="m282.96875 118.207031c.003906.007813 8.328125 6.371094 15.132812-.464843 0 .007812-7.953124-6.621094-15.132812.464843"/><path d="m277.882812 126.683594c.003907.007812 8.335938 6.285156 15.140626-.660156.003906.007812-7.957032-6.527344-15.140626.660156"/><path d="m241.328125 119.511719c0 .019531-.363281 8.957031 11.214844 10.511719-.003907.023437.644531-8.773438-11.214844-10.511719"/><path d="m240.152344 130.308594c-.003906.03125-.429688 10.640625 13.316406 12.441406-.003906.03125.765625-10.433594-13.316406-12.441406"/><path d="m259.726562 118.90625c.003907-.011719 9.882813 3.597656 13.214844-5.566406.003906-.011719-9.570312-3.910156-13.214844 5.566406"/><path d="m0 149.785156c.0234375.097656-.15625 16.277344 21.898438 13.585938.023437.109375.539062-16.832032-21.898438-13.585938"/><path d="m55.210938 72.910156c-.003907.027344-13.890626 14.03125-1.414063 26.460938-.003906.027344 13.890625-13.285156 1.414063-26.460938"/><path d="m298.871094 61.507812c0-.074218-14.203125 8.136719-1.863282 25.753907 0-.078125 14.136719-7.375 1.863282-25.753907"/><path d="m243.753906 20.050781c-.007812-.054687-14.367187 9.617188-1.800781 26.527344-.003906-.054687 14.3125-8.832031 1.800781-26.527344"/><path d="m83.730469 42.746094s-8.363281 7.515625-1.652344 15.382812c-.003906 0 8.332031-7.105468 1.652344-15.382812"/><path d="m83.960938 35.082031c.003906.035157-1.714844 9.578125 10.21875 10.601563.003906.039062 1.945312-9.5-10.21875-10.601563"/><path d="m98.644531 23.261719c-.003906.054687-10.554687 15.421875 6.058594 25.328125 0 .054687 10.722656-14.851563-6.058594-25.328125"/><path d="m14.832031 109.933594c.015625.050781 2.304688 12.074218 19.664063 7.40625.015625.0625-1.945313-12.515625-19.664063-7.40625"/><path d="m80.765625 130.433594c.007813.050781-.625 12.886718 16.039063 13.207031.007812.054687.984374-12.925781-16.039063-13.207031"/><path d="m68.457031 45.988281c-.003906.058594-12.464843 15.972657 3.417969 26.9375-.003906.058594 12.574219-15.308593-3.417969-26.9375"/><path d="m2.960938 171.855469c.015624.027343 6.503906 13.84375 28.222656 5.191406.023437.046875-6.027344-14.683594-28.222656-5.191406"/><path d="m28.152344 144.839844c.011718.105468-7.816406 17.007812 11.519531 22.902344.007813.101562 8.074219-16.828126-11.519531-22.902344"/><path d="m91.664062 156.984375c.003907.023437 2.890626 10.371094 16.769532 6.304687.003906.027344-2.523438-10.503906-16.769532-6.304687"/><path d="m93.972656 79.082031c-.003906.003907-10.214844 8.722657-1.042968 17.566407-.003907.003906 10.203124-8.246094 1.042968-17.566407"/><path d="m84.527344 178.800781c.007812.023438-4.085938-12.078125-20.066406-5.875.007812.027344 3.574218 11.535157 20.066406 5.875"/><path d="m86.375 70.640625c-.003906 0-8.898438 7.175781-1.632812 14.835937-.003907 0 8.867187-6.777343 1.632812-14.835937"/><path d="m104.523438 59.585938c.007812.027343-4.109376-10.097657-17.667969-4.011719.007812.03125 3.664062 9.621093 17.667969 4.011719"/><path d="m111.757812 71.609375c.003907.027344-4.109374-10.183594-17.683593-4.328125.007812.03125 3.664062 9.71875 17.683593 4.328125"/><path d="m119.328125 80.582031c.003906.011719-2.875-7.183593-12.414063-3.304687.003907.011718 2.574219 6.929687 12.414063 3.304687"/><path d="m128.332031 76.359375c-.003906 0 6.707031-5.769531.125-11.90625-.003906 0-6.703125 5.527344-.125 11.90625"/><path d="m139.339844 124.355469c0 .003906 6.695312-5.605469.132812-11.921875 0 0-6.691406 5.355468-.132812 11.921875"/><path d="m253.148438 153.371094c0 .011718 1.394531-7.597656-8.484376-9.890625 0 .007812-1.574218 7.34375 8.484376 9.890625"/><path d="m128.015625 88.84375c0 .011719-2.871094-7.242188-12.421875-3.523438 0 .015626 2.570312 6.996094 12.421875 3.523438"/><path d="m115.765625 61.621094c0 .003906 5.550781-5.988282-1.273437-10.761719-.003907.003906-5.574219 5.75 1.273437 10.761719"/><path d="m122.933594 94.535156c0 .003906 3.984375 5.960938 12.175781 1.503906.003906.011719-3.707031-6.070312-12.175781-1.503906"/><path d="m120.824219 68.726562c-.003907-.003906 7.011719-4.523437 2.171875-11.027343-.003906-.003907-6.960938 4.296875-2.171875 11.027343"/><path d="m68.324219 113.21875c-.007813-.011719-11.128907 6.089844-5.976563 16.132812-.007812-.011718 10.988282-5.625 5.976563-16.132812"/><path d="m73.800781 123.890625c-.003906-.011719-11.136719 5.941406-5.984375 16.085937-.007812-.011718 11-5.484374 5.984375-16.085937"/><path d="m76.019531 136.367188c0 .003906-7.996093 6.269531-1.597656 13.246093 0 .003907 7.964844-5.917969 1.597656-13.246093"/><path d="m41.472656 183.628906c.003906-.003906-5.105468-6.339844-14.515625.375.003907-.003906 4.730469 6.167969 14.515625-.375"/><path d="m66.882812 194.132812c.003907-.003906-5.132812-6.65625-14.609374-.261718.003906 0 4.761718 6.476562 14.609374.261718"/><path d="m50.496094 176.816406c0 .019532 4.222656-8.457031-5.664063-10.925781.003907.023437-4.355469 8.128906 5.664063 10.925781"/><path d="m60.804688 181.113281c0 .019531 4.238281-8.425781-5.675782-11.09375.003906.023438-4.367187 8.101563 5.675782 11.09375"/><path d="m63.710938 156.582031c.003906.011719-4.667969-9.023437-17.199219-2.273437.007812.011718 4.222656 8.664062 17.199219 2.273437"/><path d="m63.851562 101.964844c-.003906-.007813-9.304687 5.582031-4.515624 13.832031-.003907-.007813 9.203124-5.191406 4.515624-13.832031"/><path d="m96.175781 185.648438c.003907 0-5.160156-6.410157-14.058593-.332032.003906 0 4.816406 6.25 14.058593.332032"/><path d="m95.25 246.710938c.003906 0-5.144531-6.507813-14.011719-.65625.003907-.003907 4.804688 6.375 14.011719.65625"/><path d="m28.289062 134.902344c.003907.019531 1.355469 8.324218 12.746094 4.738281.007813.027344-1.09375-8.445313-12.746094-4.738281"/><path d="m83.109375 59.542969c-.003906-.015625-10.003906 5.378906-5.472656 14.445312-.003907-.015625 9.878906-4.972656 5.472656-14.445312"/><path d="m148.070312 188.335938s-7.964843-7.511719-17.980468.933593c0 0 7.523437 7.324219 17.980468-.933593"/><path d="m98.59375 202.835938c-.003906 0-9.054688 6.019531-2.585938 14.457031 0 .003906 8.996094-5.640625 2.585938-14.457031"/><path d="m108.585938 205.730469s-6.988282 4.566406-2 11.152343c-.003907 0 6.941406-4.28125 2-11.152343"/><path d="m176.476562 144.230469c-.003906-.015625-10.101562 3.777343-5.601562 13.804687-.003906-.019531 9.964844-3.433594 5.601562-13.804687"/><path d="m84.96875 147.613281c.003906.011719 3.6875 7.871094 14.53125 3.121094.003906.011719-3.371094-8.003906-14.53125-3.121094"/><path d="m103.554688 169.042969c.003906.015625 4.890624 10.378906 18.9375 4.601562.003906.023438-4.472657-10.582031-18.9375-4.601562"/><path d="m116.574219 180.003906c.003906.007813 6.730469 9.605469 19.8125 2.300782.003906.015624-6.289063-9.847657-19.8125-2.300782"/><path d="m148.9375 176.6875c-.003906.003906 9.113281-8.386719-.964844-17.160156-.003906.007812-9.128906 8.03125.964844 17.160156"/><path d="m134.863281 170.089844c-.003906.015625 8.042969-9.417969-3.21875-16.832032 0 .011719-8.105469 9.042969 3.21875 16.832032"/><path d="m122.074219 161.285156c0 .011719 7.527343-8.371094-2.296875-15.164062-.003906.015625-7.570313 8.035156 2.296875 15.164062"/><path d="m109.949219 152.664062c0 .015626 7.03125-8.792968-3.226563-14.84375 0 .015626-7.097656 8.449219 3.226563 14.84375"/><path d="m129.800781 120.214844c-.003906.011718 9.15625-10.148438-2.804687-18.410156 0 .015624-9.207032 9.753906 2.804687 18.410156"/><path d="m114.910156 111.410156c-.003906.007813 9.847656-9.125-.46875-17.941406 0 .007812-9.84375 8.761719.46875 17.941406"/><path d="m102.8125 103.089844c-.003906 0 9.863281-7.628906 1.695312-16.488282-.003906 0-9.816406 7.3125-1.695312 16.488282"/><path d="m332.480469 192.714844c-.003907.046875 4.277343 11.878906-10.5625 12.410156-.003907.046875-4.511719-11.8125 10.5625-12.410156"/><path d="m345.507812 191.042969c-.003906.035156 4.089844 9.988281-8.15625 10.640625-.003906.035156-4.269531-9.898438 8.15625-10.640625"/><path d="m356.023438 186.066406c0 .03125 6.433593 9.496094-4.046876 12.464844-.003906.035156-6.53125-9.277344 4.046876-12.464844"/><path d="m270.984375 199.003906c-.003906.042969-1.910156-13.011718 14.800781-11.652344-.003906.042969 2.257813 12.464844-14.800781 11.652344"/><path d="m290.910156 203.226562c-.007812.046876-3.363281-12.492187 12.289063-12.378906-.003907.046875 3.652343 11.96875-12.289063 12.378906"/><path d="m308.035156 204.542969c0 .042969-4.476562-11.289063 9.246094-12.367188-.003906.039063 4.691406 10.835938-9.246094 12.367188"/><path d="m115.261719 141.386719c.003906-.019531 11.554687 7.023437 22.035156-4.984375.003906-.015625-11.085937-7.480469-22.035156 4.984375"/><path d="m99.808594 133.90625c0-.023438 11.535156 6.710938 21.992187-5.507812.003907-.019532-11.078125-7.183594-21.992187 5.507812"/><path d="m52.796875 164.335938c.003906 0 6 8.917968 19.03125 1.253906.007813.007812-5.609375-9.226563-19.03125-1.253906"/><path d="m36.078125 190.359375c.003906-.019531 8.269531 7.074219 19.53125-2.675781.003906-.011719-7.875-7.402344-19.53125 2.675781"/><path d="m.347656 188.800781c0-.027343 8.167969 6.414063 19.3125-3.726562 0-.023438-7.796875-6.777344-19.3125 3.726562"/><path d="m90.910156 124.746094c.003906-.015625 8.828125 4.964844 16.8125-4.546875 0-.011719-8.472656-5.277344-16.8125 4.546875"/><path d="m78.464844 114.707031c.003906-.003906 7.007812 7.027344 17.605468-1.152343.003907 0-6.640624-7.339844-17.605468 1.152343"/><path d="m59.945312 222.644531c.003907.03125-1.992187 11.375 12.425782 11.867188.003906.03125 2.273437-11.304688-12.425782-11.867188"/><path d="m114.738281 231.09375c0 .019531 2.082031-9.6875-9.945312-10.941406.003906.023437-2.308594 9.328125 9.945312 10.941406"/><path d="m66.496094 240.652344c.003906-.015625-7.605469-5.585938-15.984375 2.867187 0-.015625 7.207031 5.53125 15.984375-2.867187"/><path d="m133.777344 222.925781c-.003906.011719 4.300781-7.109375-4.355469-11.019531 0 .011719-4.398437 6.839844 4.355469 11.019531"/><path d="m102.410156 233.707031c0 .027344 2.414063-11.144531-11.398437-12.40625 0 .027344-2.675781 10.707031 11.398437 12.40625"/><path d="m88.023438 235.140625c0 .03125 2.324218-10.824219-11.089844-11.828125.003906.027344-2.582032 10.390625 11.089844 11.828125"/><path d="m117.027344 215.515625c0 .019531-2.628906 9.140625 8.769531 11.203125 0 .019531 2.84375-8.957031-8.769531-11.203125"/><path d="m42.765625 140.105469c.007813.035156 1.109375 11.40625 16.40625 7.804687.007813.039063-.769531-11.597656-16.40625-7.804687"/><path d="m39.984375 128.621094c.007813.035156 1.464844 10.613281 15.851563 6.632812.007812.035156-1.140626-10.808594-15.851563-6.632812"/><path d="m38.355469 116.691406c.003906.027344 1.316406 9.527344 14.242187 5.785156.007813.035157-1.023437-9.679687-14.242187-5.785156"/><path d="m42.460938 101.546875c.003906.019531-2.460938 7.949219 7.1875 8.40625.003906.027344 2.621093-7.855469-7.1875-8.40625"/><path d="m8.980469 126.933594c.003906.007812 2.40625 6.574218 12.015625 1.914062.003906.007813-2.167969-6.730468-12.015625-1.914062"/><path d="m69.617188 106.242188c0-.007813 6.996093 6.867187 17.574218-1.476563.003906 0-6.636718-7.195313-17.574218 1.476563"/><path d="m64.074219 93.039062c.003906.023438 2.902343 9.167969 15.632812 4.347657.007813.027343-2.578125-9.375-15.632812-4.347657"/><path d="m25.441406 90.785156c.011719.078125-5.785156 14.238282 10.972656 15.976563.011719.082031 6.023438-14.15625-10.972656-15.976563"/><path d="m38.75 74.84375c.003906.039062-8.386719 11.421875 3.707031 16.835938 0 .039062 8.484375-11.058594-3.707031-16.835938"/><path d="m62.488281 81.949219c.003907.019531 1.398438 7.691406 11.8125 4.5625.003907.019531-1.144531-7.78125-11.8125-4.5625"/><path d="m264.828125 227.269531c-.003906.007813 2.976563-7.40625 14.71875-3.148437 0 .007812-2.621094 7.164062-14.71875 3.148437"/><path d="m273.835938 236.472656c0 .019532-.074219-8.058594 12.199218-7.316406-.003906.019531.363282 7.734375-12.199218 7.316406"/><path d="m286.054688 238.515625c0 .019531-1.832032-8.015625 10.09375-9.234375 0 .023438 2.074218 7.667969-10.09375 9.234375"/><path d="m298.734375 239.636719c-.003906.023437-3.136719-7.800781 8.21875-10.4375 0 .027343 3.328125 7.449219-8.21875 10.4375"/><path d="m311.085938 238.023438c0 .027343-2.125-7.933594 9.648437-9.152344-.003906.027344 2.355469 7.582031-9.648437 9.152344"/><path d="m323.007812 239.089844c-.007812.035156-1.054687-9.8125 13.871094-9.167969-.007812.039063 1.394532 9.328125-13.871094 9.167969"/><path d="m293.414062 263.566406c0-.039062 11.613282-6.15625 23.207032 8.210938-.003906-.039063-11.019532 6.222656-23.207032-8.210938"/><path d="m254.425781 224.589844c.003907.015625-4.753906-9.058594 5.589844-15.792969.003906.023437 4.878906 8.640625-5.589844 15.792969"/><path d="m245.074219 230.140625c0 .007813-6.957031-7.039063.796875-17.328125 0 .007812 6.96875 6.644531-.796875 17.328125"/><path d="m289.425781 222.996094c.003907-.027344-13.089843.089844-12.398437-13.308594.003906-.03125 12.820312-.332031 12.398437 13.308594"/><path d="m305.777344 224.335938c.007812-.027344-13.054688-.152344-12.351563-13.429688.003907-.03125 12.785157-.074219 12.351563 13.429688"/></g><g clip-path="url(#b)"><path d="m372.429688 188.683594c-.007813.046875 3.9375 11.09375-11.015626 9.632812-.007812.050782-4.167968-11.140625 11.015626-9.632812" fill="#3c3c3c"/></g><path d="m369.328125 168.554688c-.015625.074218 1.96875 14.75-18.394531 9.328124-.019532.078126-2.316406-15.136718 18.394531-9.328124" fill="#3c3c3c"/><path d="m318.566406 223.480469c.003906-.015625-9.96875-.292969-9.425781-10.351563.003906-.023437 9.757813.105469 9.425781 10.351563" fill="#3c3c3c"/><path d="m334.789062 220.25c0-.027344-10.132812 1.804688-12.546874-8.289062.003906-.027344 9.859374-1.980469 12.546874 8.289062" fill="#3c3c3c"/><path d="m347.328125 218.40625c.003906-.027344-10.097656 1.597656-12.503906-8.449219.003906-.027343 9.824219-1.769531 12.503906 8.449219" fill="#3c3c3c"/><path d="m360.554688 212.335938c.003906-.03125-8.515626 4.609374-15.070313-3.9375 0-.027344 8.203125-4.800782 15.070313 3.9375" fill="#3c3c3c"/><path d="m304.742188 255.714844c.003906-.019532-10.496094 1.59375-11.871094-8.605469 0-.023437 10.234375-1.761719 11.871094 8.605469" fill="#3c3c3c"/><path d="m294.070312 272.753906c.003907-.019531-10.828124.425782-10.507812-9.746094 0-.015624 10.59375-.605468 10.507812 9.746094" fill="#3c3c3c"/><path d="m278.121094 269.589844c0-.007813-10.636719-2.984375-6.097656-12.136719 0-.007813 10.496093 2.757813 6.097656 12.136719" fill="#3c3c3c"/><path d="m264.410156 263.90625c.003906.007812-9.085937-5.953125-1.070312-12.972656 0 .007812 9.054687 5.683594 1.070312 12.972656" fill="#3c3c3c"/><path d="m250.484375 257.671875c0 .015625-4.953125-8.945313 6.21875-11.433594 0 .019531 5.089844 8.632813-6.21875 11.433594" fill="#3c3c3c"/><path d="m292.4375 254.472656c0-.027344-10.515625 1.726563-11.902344-8.523437.003906-.019531 10.253906-1.902344 11.902344 8.523437" fill="#3c3c3c"/><path d="m317.730469 254.09375c.003906-.023438-10.472657 1.425781-11.84375-8.714844.003906-.027344 10.214843-1.59375 11.84375 8.714844" fill="#3c3c3c"/><path d="m331.933594 248.179688c0-.027344-9.234375 4.523437-15-4.171876 0-.023437 8.910156-4.683593 15 4.171876" fill="#3c3c3c"/><path d="m369.257812 206.179688c0-.019532-6.3125 4.132812-12.3125-2.316407 0-.015625 6.054688-4.28125 12.3125 2.316407" fill="#3c3c3c"/><path d="m4.6875 197.300781c.003906-.035156 10.246094 10.835938 27.765625-2.195312.007813-.023438-9.753906-11.515625-27.765625 2.195312" fill="#3c3c3c"/><path d="m34.695312 232.980469c.003907-.019531 8.492188 10.28125 23.726563.164062.003906-.011719-8.019531-10.667969-23.726563-.164062" fill="#3c3c3c"/><path d="m53 252.503906c0-.023437 9.722656 9.066406 23.070312-1.722656.003907-.019531-9.242187-9.386719-23.070312 1.722656" fill="#3c3c3c"/><path d="m46.050781 216.371094c-.003906-.035156 12.386719.578125 15.605469-12.019532-.003906-.035156-12.054688-.859374-15.605469 12.019532" fill="#3c3c3c"/><path d="m81.152344 217.191406c-.003906-.015625 12.253906-4.429687 8.375-16.230468-.003906-.015626-12.066406 4.125-8.375 16.230468" fill="#3c3c3c"/><path d="m63.425781 219.84375c-.007812-.03125 14.246094-2.101562 12.023438-15.59375-.007813-.03125-13.984375 1.828125-12.023438 15.59375" fill="#3c3c3c"/><path d="m32.589844 209.871094c0-.027344 9.421875 4.105468 16.953125-6.203125 0-.023438-9.070313-4.367188-16.953125 6.203125" fill="#3c3c3c"/><path d="m23.992188 204.679688c0-.015626 6.96875 3.890624 13.828124-4.011719 0-.011719-6.679687-4.082031-13.828124 4.011719" fill="#3c3c3c"/><path d="m69.183594 259.882812c0-.011718 7.027344 4.621094 13.945312-2.886718 0-.007813-6.722656-4.765625-13.945312 2.886718" fill="#3c3c3c"/><path d="m113.921875 263.320312c-.007813-.003906 11.542969-5.539062 5.503906-16.808593-.003906-.007813-11.417969 5.207031-5.503906 16.808593" fill="#3c3c3c"/><path d="m131.917969 257.613281c-.003907.003907 11.074219-8.625-.351563-17.960937-.003906.007812-11.074218 8.246094.351563 17.960937" fill="#3c3c3c"/><path d="m97.003906 264.761719c0-.011719 11.582032-1.339844 11.054688-12.871094 0-.015625-11.335938 1.074219-11.054688 12.871094" fill="#3c3c3c"/><path d="m85.308594 264.890625c-.003906-.011719 9.285156-.335937 9.925781-9.625 0-.007813-9.0625.128906-9.925781 9.625" fill="#3c3c3c"/></svg>