<?xml version="1.0" encoding="UTF-8"?><svg xmlns="http://www.w3.org/2000/svg" xmlns:xlink="http://www.w3.org/1999/xlink" height="424.2" preserveAspectRatio="xMidYMid meet" version="1.0" viewBox="-0.2 -0.0 373.1 424.2" width="373.1" zoomAndPan="magnify"><defs><clipPath id="a"><path d="M 77 330 L 316 330 L 316 424.210938 L 77 424.210938 Z M 77 330"/></clipPath><clipPath id="b"><path d="M 360 188 L 372.898438 188 L 372.898438 199 L 360 199 Z M 360 188"/></clipPath></defs><g><g id="change1_134"><path d="M 311.390625 361.566406 C 303.089844 362.429688 294.433594 362.742188 293.398438 359.863281 C 290.519531 351.847656 280.402344 349.484375 281.464844 348.480469 C 281.882812 348.082031 285.476562 348.28125 291.441406 349.367188 C 294.378906 349.898438 303.136719 352.742188 306.042969 353.355469 C 307.535156 353.671875 308.777344 354.183594 309.839844 354.726562 C 314.117188 356.910156 321.476562 357.585938 327.117188 358.9375 C 330.175781 359.671875 332.71875 361.390625 334.019531 361.816406 C 332.511719 359.988281 330.207031 359.34375 328.972656 358.875 C 326.777344 358.035156 324.863281 357.210938 322.859375 356.859375 C 319.519531 356.28125 317.429688 356.089844 314.992188 354.886719 C 309.113281 351.992188 305.816406 350.628906 300.117188 349.75 C 300.359375 349.125 310.367188 348.296875 314.640625 348.476562 C 319.109375 348.652344 326.410156 349.773438 331.820312 349.476562 C 333.773438 349.367188 335.4375 349.027344 337.28125 348.828125 C 339.125 348.632812 341.335938 349.164062 343.367188 349.621094 C 341.601562 348.554688 337.996094 348.175781 335.226562 348.253906 C 332.460938 348.335938 329.921875 348.726562 326.992188 348.5625 C 322.699219 348.320312 318.492188 346.933594 314.175781 346.636719 C 308.515625 346.25 304.160156 347.84375 298.492188 347.488281 C 295.332031 347.285156 292.382812 346.347656 289.203125 345.914062 C 281.277344 344.828125 268.132812 346.5 256.699219 345.851562 C 250.792969 345.507812 244.054688 345.621094 239.019531 344.160156 C 234.949219 342.980469 226.574219 337.742188 226.132812 337.035156 C 224.875 335.027344 230.578125 333.546875 234.949219 333.984375 C 239.320312 334.425781 242.628906 335.003906 247.007812 335.425781 C 252.3125 335.9375 257.984375 335.757812 263.292969 335.511719 C 267.65625 335.304688 276.757812 334.984375 281.148438 335.347656 C 288.792969 335.964844 291.785156 337.214844 299.421875 337.871094 C 295.113281 336.925781 290.730469 336.0625 286.488281 335.058594 C 281.375 333.839844 274.171875 334.023438 271.21875 334.03125 C 241.507812 334.183594 242.851562 329.125 225.125 328.019531 C 216.90625 327.527344 202.527344 327.355469 194.28125 327.613281 C 188.871094 327.777344 183.457031 328.980469 178.039062 329.03125 C 175.242188 329.054688 172.449219 329.070312 169.652344 329.089844 C 168.304688 329.09375 166.636719 327.175781 166.09375 327.679688 C 163.539062 327.417969 156.945312 328.699219 156.617188 328.726562 C 152.890625 329.015625 148.683594 328.871094 145.132812 329.4375 C 142.257812 329.890625 137.070312 331.144531 135.421875 332.433594 C 131.421875 334.144531 127.519531 336.070312 122.484375 336.941406 C 120.371094 337.308594 118.121094 337.476562 116.074219 337.933594 C 111.5625 338.9375 108.710938 341.160156 104.429688 342.390625 C 100.234375 343.59375 95.171875 343.714844 90.453125 343.589844 C 85.738281 343.464844 81.019531 343.128906 76.277344 343.539062 C 71.535156 343.945312 66.59375 345.300781 64.804688 347.414062 C 69.089844 344.808594 77.085938 344.527344 83.675781 344.941406 C 90.261719 345.347656 97.324219 346.132812 103.550781 344.6875 C 108.164062 343.617188 111.527344 341.445312 116.339844 340.625 C 118.039062 340.335938 120.171875 340.289062 121.246094 340.917969 C 122.214844 341.488281 121.683594 342.328125 121.339844 343.070312 C 119.644531 346.703125 116.3125 347.195312 112.679688 348.867188 C 110.0625 350.074219 107.210938 350.605469 103.96875 351.394531 C 98.546875 352.710938 92.433594 353.59375 86.527344 354.128906 C 80.621094 354.65625 74.414062 355.554688 70.210938 357.660156 C 67.789062 358.875 66.238281 360.390625 63.980469 361.660156 C 58.796875 364.578125 51.308594 366.605469 49.035156 370.125 C 47.75 372.113281 47.601562 373.84375 47.496094 375.867188 C 47.394531 377.832031 45.910156 379.832031 43.320312 381.484375 C 46.28125 379.519531 48.96875 378.136719 50.152344 375.855469 C 51.464844 373.328125 50.671875 370.828125 54.292969 368.742188 C 57.40625 366.945312 62.929688 364.355469 66.386719 362.679688 C 68.570312 361.621094 70.054688 360.886719 72.0625 359.753906 C 76.582031 357.207031 82.109375 356.824219 88.804688 355.945312 C 95.496094 355.066406 103.71875 353.574219 110.15625 352.296875 C 116.59375 351.015625 123.121094 347.96875 125.101562 344.839844 C 126.007812 343.40625 125.59375 342.640625 126.609375 341.21875 C 128.425781 338.6875 133.261719 336.824219 138.300781 335.558594 C 143.34375 334.300781 145.710938 332.996094 154.382812 332.902344 C 156.242188 332.878906 165.855469 331.984375 169.859375 334.34375 C 172.023438 335.613281 169.699219 337.164062 167.890625 338.605469 C 163.757812 341.898438 156.105469 343.785156 149.320312 345.933594 C 142.53125 348.074219 135.734375 351.101562 135.3125 354.875 C 135.070312 357.023438 135.402344 359.027344 137.542969 361.164062 C 139.460938 363.074219 141.78125 364.679688 134.523438 365.945312 C 130.683594 366.617188 124.0625 366.324219 120.335938 367.148438 C 116.378906 368.023438 114.558594 369.90625 111.351562 371.320312 C 106.949219 373.257812 100.960938 373.28125 95.089844 373.664062 C 86.113281 374.257812 78.097656 377.578125 75.082031 381.546875 C 76.878906 379.945312 80.792969 378.972656 84.019531 377.851562 C 91.304688 375.316406 100.796875 376.085938 106.519531 375.199219 C 104.394531 378.136719 107.445312 382.976562 108.925781 385.925781 C 110.558594 389.175781 107.683594 389.214844 107.085938 393.28125 C 106.660156 396.128906 109.175781 399.429688 114.84375 400.375 C 111.382812 399.082031 110.574219 396.738281 111.039062 394.632812 C 111.503906 392.53125 112.984375 390.464844 113.113281 388.355469 C 113.386719 384.003906 107.136719 378.929688 112.4375 375.253906 C 116.339844 372.550781 117.390625 370.433594 123.605469 369.335938 C 132.757812 367.722656 142.4375 368.753906 145.453125 365.109375 C 146.773438 363.511719 144.15625 361.3125 143.453125 359.664062 C 139.386719 350.101562 158.070312 347.84375 159.527344 348.507812 C 161.59375 349.429688 156.992188 352.441406 160.222656 355.203125 C 162.398438 357.066406 167.742188 357.886719 168.945312 359.949219 C 170.0625 361.871094 166.457031 363.6875 165.390625 365.644531 C 163.179688 369.695312 172.125 373.777344 169.078125 377.714844 C 166.164062 381.488281 155.351562 381.851562 148.023438 383.929688 C 137.117188 387.027344 135.050781 395.226562 144.152344 399.1875 C 138.019531 393.8125 140.425781 387.492188 150.695312 385.847656 C 155.210938 385.125 160.597656 384.46875 164.699219 383.3125 C 168.714844 382.183594 171.484375 378.703125 176.109375 378.597656 C 179.558594 378.519531 182.09375 382.609375 183.757812 384.023438 C 185.421875 385.4375 186.257812 387.050781 187.996094 388.445312 C 190.839844 390.722656 196.207031 392.683594 195.480469 395.328125 C 195.117188 396.640625 194.640625 397.59375 194.589844 399.171875 C 198.289062 396.734375 198.617188 393.273438 195.378906 390.738281 C 193.402344 389.191406 190.230469 387.964844 189.128906 386.226562 C 188.402344 385.085938 185.65625 380.402344 184.554688 379.335938 C 180.550781 375.457031 175.933594 376.273438 172.996094 372.195312 C 166.949219 363.804688 179.84375 364.152344 177.050781 360.339844 C 174.585938 356.964844 164.230469 355.207031 165.222656 351.648438 C 165.902344 349.191406 171.78125 347.824219 174.234375 345.625 C 175.300781 344.664062 175.683594 343.566406 176.785156 342.613281 C 178.675781 340.980469 182.757812 339.96875 186.652344 340.171875 C 190.546875 340.375 191.515625 342.4375 192.53125 344.214844 C 194.761719 348.125 188.394531 351.445312 190.730469 355.34375 C 191.457031 356.554688 193.246094 357.660156 193.074219 358.921875 C 192.910156 360.109375 191.050781 361.070312 189.839844 362.121094 C 187.058594 364.53125 187.878906 367.734375 191.78125 369.730469 C 195.753906 371.765625 201.925781 372.394531 207.132812 373.679688 C 212.335938 374.96875 217.109375 377.761719 214.769531 380.304688 C 217.964844 378.152344 217.484375 374.964844 213.675781 373.054688 C 210.503906 371.460938 205.753906 370.859375 201.671875 369.828125 C 197.585938 368.796875 193.71875 366.816406 194.804688 364.683594 C 195.753906 362.820312 200.152344 361.605469 200.613281 359.707031 C 200.808594 358.894531 200.84375 358.019531 200.15625 357.269531 C 194.320312 350.90625 201.761719 345.371094 218.289062 352.027344 C 223.792969 354.246094 219.226562 358.257812 223.542969 359.835938 C 228.496094 361.636719 241.457031 359.332031 244.304688 361.96875 C 246.988281 364.4375 237.460938 369.03125 237.714844 371.796875 C 237.96875 374.570312 243.527344 376.664062 244.78125 379.378906 C 246.523438 383.140625 239.664062 386.535156 238.296875 390.339844 C 237.117188 393.621094 240.535156 397.15625 246.558594 398.890625 C 241.183594 396.992188 241.472656 393.125 243.679688 390.140625 C 245.886719 387.148438 249.511719 384.246094 249.050781 381.09375 C 248.632812 378.226562 244.859375 375.679688 243.699219 372.847656 C 242.535156 370.015625 246.160156 367.074219 252.238281 366.6875 C 266.914062 365.761719 261.390625 373.707031 267.679688 376.808594 C 273.574219 379.714844 288.714844 381.59375 288.699219 386.992188 C 288.695312 389.441406 288.15625 392.605469 283.59375 393.847656 C 292.617188 391.734375 295.441406 385.597656 289.035156 381.894531 C 283.734375 378.832031 267.117188 375.277344 269.828125 372.328125 C 268.949219 373.285156 284.800781 374.105469 297.707031 372.625 C 305.300781 371.75 313.25 374.011719 315.378906 377.492188 C 313.59375 374.570312 309.714844 372.28125 304.164062 371.503906 C 298.609375 370.726562 294.464844 371.347656 288.738281 371.449219 C 283.011719 371.542969 275.160156 371.941406 271.113281 370 C 268.144531 368.570312 268.296875 365.683594 264.734375 364.578125 C 261.464844 363.558594 256.972656 363.648438 253.972656 362.460938 C 251.628906 361.535156 250.742188 360.035156 248.746094 358.941406 C 242.78125 355.664062 228.195312 360.308594 227.8125 356.066406 C 227.324219 350.652344 220.214844 347.851562 213.105469 346.878906 C 208.429688 346.238281 203.695312 345.183594 201.183594 343.226562 C 198.671875 341.269531 199.164062 338.363281 203.191406 337.085938 C 207.238281 335.808594 212.949219 336.644531 216.617188 338.179688 C 220.28125 339.714844 222.628906 341.8125 225.746094 343.597656 C 233.199219 347.851562 247.066406 349.394531 258.582031 348.875 C 261.960938 348.683594 282.523438 348.097656 287.40625 358.394531 C 288.632812 360.976562 291.167969 363.828125 296.398438 364.964844 C 302.664062 366.316406 310.863281 362.503906 317.003906 364.023438 C 322.078125 365.269531 322.96875 369.953125 325.980469 372.167969 C 329.363281 374.648438 335.953125 375.390625 341.675781 376.714844 C 332.957031 374.699219 328.5 371.433594 325.703125 368.460938 C 322.523438 365.089844 320.734375 360.601562 311.390625 361.566406" fill="#3c3c3c"/></g><g clip-path="url(#a)" id="change1_30"><path d="M 103.136719 374.128906 C 109.734375 375.480469 116.605469 376.035156 117.421875 372.199219 C 119.695312 361.53125 127.726562 358.589844 126.882812 357.226562 C 126.550781 356.6875 123.699219 356.886719 118.960938 358.203125 C 116.628906 358.851562 109.675781 362.457031 107.367188 363.210938 C 106.183594 363.601562 105.199219 364.257812 104.355469 364.960938 C 100.960938 367.792969 95.113281 368.519531 90.632812 370.1875 C 88.203125 371.09375 86.183594 373.355469 85.152344 373.894531 C 86.34375 371.453125 88.175781 370.652344 89.15625 370.046875 C 90.898438 368.96875 92.417969 367.910156 94.011719 367.496094 C 96.664062 366.800781 98.324219 366.601562 100.257812 365.046875 C 104.925781 361.296875 107.542969 359.554688 112.070312 358.519531 C 111.875 357.679688 103.921875 356.304688 100.523438 356.410156 C 96.96875 356.515625 91.164062 357.796875 86.859375 357.199219 C 85.300781 356.984375 83.976562 356.460938 82.507812 356.125 C 81.039062 355.789062 79.28125 356.425781 77.664062 356.96875 C 79.066406 355.582031 81.9375 355.203125 84.140625 355.421875 C 86.34375 355.632812 88.367188 356.253906 90.695312 356.128906 C 94.109375 355.949219 97.457031 354.207031 100.886719 353.945312 C 105.386719 353.597656 108.851562 355.863281 113.355469 355.523438 C 115.867188 355.332031 118.210938 354.144531 120.734375 353.640625 C 127.03125 352.382812 137.464844 354.855469 146.535156 354.125 C 151.222656 353.746094 156.566406 353.960938 160.5625 352.078125 C 163.785156 350.554688 170.433594 343.722656 170.785156 342.804688 C 171.785156 340.175781 167.261719 338.191406 163.792969 338.722656 C 160.324219 339.253906 157.703125 339.980469 154.226562 340.480469 C 150.019531 341.085938 145.515625 340.761719 141.300781 340.335938 C 137.835938 339.984375 130.609375 339.367188 127.121094 339.734375 C 121.046875 340.367188 118.671875 341.953125 112.601562 342.609375 C 116.023438 341.472656 119.507812 340.441406 122.878906 339.210938 C 126.941406 337.726562 132.660156 338.144531 135.007812 338.21875 C 158.597656 338.980469 157.523438 332.21875 171.59375 330.972656 C 178.113281 330.40625 189.515625 330.238281 196.054688 330.558594 C 200.339844 330.761719 204.632812 332.308594 208.925781 332.339844 C 211.140625 332.351562 213.359375 332.351562 215.574219 332.347656 C 216.644531 332.34375 217.972656 329.835938 218.398438 330.480469 C 220.421875 330.117188 224.597656 331.855469 225.128906 331.734375 C 225.378906 331.675781 225.648438 331.707031 225.90625 331.734375 C 228.859375 332.0625 232.195312 331.816406 235.007812 332.488281 C 237.285156 333.03125 241.394531 334.5625 242.695312 336.195312 C 245.863281 338.335938 248.949219 340.75 252.9375 341.761719 C 254.613281 342.1875 256.394531 342.347656 258.015625 342.886719 C 261.585938 344.070312 263.839844 346.871094 267.230469 348.339844 C 270.550781 349.777344 274.566406 349.78125 278.308594 349.464844 C 282.046875 349.144531 285.792969 348.546875 289.554688 348.902344 C 293.316406 349.257812 297.230469 350.816406 298.636719 353.484375 C 295.253906 350.277344 288.90625 350.21875 283.679688 350.980469 C 278.449219 351.738281 272.847656 352.980469 267.917969 351.289062 C 264.265625 350.035156 261.605469 347.320312 257.796875 346.382812 C 256.449219 346.050781 254.757812 346.039062 253.90625 346.882812 C 253.136719 347.640625 253.554688 348.71875 253.824219 349.671875 C 255.152344 354.335938 257.792969 354.890625 260.664062 356.957031 C 262.734375 358.449219 264.992188 359.058594 267.558594 359.984375 C 271.851562 361.53125 276.695312 362.484375 281.375 362.976562 C 286.054688 363.464844 290.976562 364.402344 294.300781 366.972656 C 296.214844 368.453125 297.4375 370.351562 299.222656 371.914062 C 303.320312 375.496094 309.253906 377.820312 311.039062 382.285156 C 312.050781 384.8125 312.15625 387.054688 312.230469 389.675781 C 312.304688 392.222656 313.46875 394.753906 315.515625 396.792969 C 313.175781 394.367188 311.054688 392.683594 310.121094 389.769531 C 309.09375 386.542969 309.738281 383.273438 306.875 380.710938 C 304.414062 378.507812 300.046875 375.367188 297.3125 373.328125 C 295.585938 372.039062 294.410156 371.140625 292.820312 369.75 C 289.25 366.621094 284.867188 366.324219 279.5625 365.40625 C 274.261719 364.488281 267.75 362.804688 262.652344 361.328125 C 257.554688 359.851562 252.390625 356.0625 250.835938 352.054688 C 250.121094 350.214844 250.453125 349.214844 249.652344 347.394531 C 248.222656 344.160156 244.394531 341.851562 240.402344 340.308594 C 236.414062 338.769531 234.539062 337.121094 227.667969 337.125 C 226.195312 337.125 218.574219 336.082031 215.394531 339.183594 C 213.679688 340.859375 215.515625 342.851562 216.945312 344.707031 C 220.214844 348.941406 226.269531 351.292969 231.640625 353.957031 C 237.015625 356.621094 242.390625 360.402344 242.710938 365.285156 C 242.894531 368.066406 242.628906 370.671875 240.925781 373.484375 C 239.402344 376.003906 237.554688 378.136719 243.300781 379.621094 C 246.339844 380.40625 251.582031 379.863281 254.53125 380.832031 C 257.664062 381.863281 259.101562 384.253906 261.632812 385.992188 C 265.113281 388.382812 269.859375 388.234375 274.507812 388.550781 C 281.617188 389.03125 287.957031 393.058594 290.328125 398.089844 C 288.914062 396.074219 285.816406 394.953125 283.261719 393.609375 C 277.5 390.574219 269.976562 391.863281 265.445312 390.882812 C 267.117188 394.621094 264.683594 400.976562 263.5 404.835938 C 262.191406 409.09375 264.472656 409.0625 264.929688 414.308594 C 265.253906 417.980469 263.25 422.328125 258.761719 423.714844 C 261.507812 421.945312 262.152344 418.886719 261.792969 416.175781 C 261.433594 413.464844 260.269531 410.832031 260.175781 408.105469 C 259.976562 402.476562 264.945312 395.726562 260.757812 391.117188 C 257.679688 387.722656 256.855469 385.011719 251.933594 383.753906 C 244.691406 381.890625 237.023438 383.433594 234.648438 378.769531 C 233.605469 376.722656 235.6875 373.816406 236.246094 371.664062 C 239.5 359.195312 224.703125 356.597656 223.546875 357.464844 C 221.90625 358.691406 225.542969 362.535156 222.980469 366.171875 C 221.25 368.625 217.015625 369.765625 216.058594 372.472656 C 215.167969 374.984375 218.019531 377.296875 218.855469 379.816406 C 220.597656 385.046875 213.507812 390.496094 215.90625 395.570312 C 218.207031 400.429688 226.761719 400.703125 232.554688 403.238281 C 241.179688 407.015625 242.789062 417.582031 235.574219 422.941406 C 240.441406 415.820312 238.558594 407.695312 230.433594 405.78125 C 226.863281 404.945312 222.605469 404.191406 219.359375 402.769531 C 216.183594 401.378906 214 396.902344 210.339844 396.832031 C 207.613281 396.78125 205.59375 402.148438 204.277344 404.015625 C 202.957031 405.882812 202.292969 408 200.914062 409.839844 C 198.65625 412.851562 194.410156 415.492188 194.980469 418.933594 C 195.261719 420.640625 195.640625 421.875 195.675781 423.9375 C 192.753906 420.816406 192.5 416.296875 195.066406 412.941406 C 196.632812 410.894531 199.144531 409.246094 200.019531 406.96875 C 200.597656 405.46875 202.78125 399.324219 203.65625 397.917969 C 206.832031 392.816406 210.484375 393.804688 212.820312 388.453125 C 217.628906 377.457031 207.417969 378.089844 209.640625 373.082031 C 211.597656 368.664062 219.804688 366.238281 219.027344 361.625 C 218.492188 358.445312 213.84375 356.742188 211.90625 353.902344 C 211.0625 352.664062 210.757812 351.238281 209.886719 350.011719 C 208.394531 347.902344 205.160156 346.613281 202.074219 346.902344 C 198.988281 347.191406 198.21875 349.882812 197.410156 352.207031 C 195.632812 357.324219 200.671875 361.613281 198.8125 366.714844 C 198.234375 368.296875 196.816406 369.757812 196.949219 371.398438 C 197.078125 372.945312 198.546875 374.1875 199.503906 375.542969 C 201.703125 378.65625 201.046875 382.84375 197.953125 385.488281 C 194.804688 388.183594 189.917969 389.066406 185.792969 390.789062 C 181.671875 392.515625 177.886719 396.207031 179.738281 399.523438 C 177.210938 396.730469 177.59375 392.546875 180.613281 390.019531 C 183.128906 387.914062 186.890625 387.09375 190.125 385.710938 C 193.359375 384.328125 196.425781 381.707031 195.566406 378.929688 C 194.820312 376.511719 191.339844 374.957031 190.980469 372.480469 C 190.824219 371.421875 190.800781 370.277344 191.34375 369.292969 C 195.980469 360.949219 190.09375 353.773438 176.988281 362.492188 C 172.621094 365.402344 176.234375 370.660156 172.8125 372.734375 C 168.886719 375.113281 158.621094 372.054688 156.359375 375.507812 C 154.234375 378.757812 161.78125 384.832031 161.578125 388.464844 C 161.375 392.117188 156.96875 394.886719 155.976562 398.464844 C 154.597656 403.433594 160.023438 407.882812 161.101562 412.878906 C 162.035156 417.1875 159.332031 421.871094 154.5625 424.210938 C 158.816406 421.660156 158.589844 416.574219 156.84375 412.648438 C 155.097656 408.71875 152.226562 404.898438 152.59375 400.738281 C 152.925781 396.953125 155.914062 393.582031 156.835938 389.851562 C 157.757812 386.117188 154.886719 382.242188 150.070312 381.703125 C 138.441406 380.410156 142.820312 390.949219 137.839844 395.046875 C 133.167969 398.882812 121.167969 401.308594 121.1875 408.519531 C 121.191406 411.789062 121.625 416.023438 125.238281 417.683594 C 118.09375 414.863281 115.839844 406.609375 120.914062 401.707031 C 125.113281 397.652344 138.28125 393.019531 136.132812 389.089844 C 136.828125 390.363281 124.265625 391.375 114.023438 389.222656 C 107.996094 387.953125 101.691406 390.855469 100.011719 395.527344 C 101.421875 391.605469 104.492188 388.589844 108.898438 387.628906 C 113.304688 386.667969 116.59375 387.558594 121.136719 387.753906 C 125.679688 387.949219 131.90625 388.539062 135.109375 385.988281 C 137.464844 384.113281 137.34375 380.28125 140.164062 378.84375 C 142.757812 377.519531 146.320312 377.664062 148.699219 376.113281 C 150.558594 374.902344 151.257812 372.925781 152.84375 371.496094 C 157.570312 367.222656 169.128906 373.367188 169.433594 367.785156 C 169.824219 360.667969 175.464844 357.019531 181.101562 355.746094 C 184.808594 354.90625 188.5625 353.515625 190.554688 350.949219 C 192.550781 348.390625 192.164062 344.597656 188.972656 342.933594 C 185.769531 341.265625 181.238281 342.34375 178.328125 344.347656 C 175.421875 346.347656 173.558594 349.089844 171.082031 351.417969 C 165.171875 356.972656 154.179688 358.9375 145.042969 358.101562 C 142.367188 357.839844 126.042969 356.695312 122.179688 370.339844 C 121.207031 373.765625 119.195312 377.539062 115.046875 378.980469 C 110.078125 380.699219 103.5625 375.414062 98.6875 377.316406 C 94.65625 378.886719 93.960938 385.203125 91.574219 388.140625 C 88.898438 391.433594 83.664062 392.304688 79.121094 393.988281 C 86.042969 391.429688 89.574219 387.082031 91.785156 383.125 C 94.300781 378.625 95.710938 372.617188 103.136719 374.128906" fill="#3c3c3c"/></g><g id="change1_151"><path d="M 288.933594 173.011719 L 290.121094 172.566406 L 290.667969 172.738281 C 296.136719 174.46875 300.9375 175.707031 305.339844 176.523438 C 309.652344 177.300781 314.054688 177.851562 318.5 178.179688 C 317.210938 177.988281 315.925781 177.777344 314.660156 177.554688 C 309.710938 176.667969 303.929688 175.125 297.476562 172.972656 L 292.996094 171.476562 L 298.601562 169.402344 C 315.183594 163.324219 325.914062 155.671875 332.816406 148.730469 C 326.988281 152.628906 320.191406 155.964844 313.550781 158.9375 L 310.578125 160.269531 L 311.246094 157.085938 C 312.25 152.285156 313.597656 148.261719 315.257812 145.117188 C 314.378906 146.386719 313.550781 147.753906 312.804688 149.21875 C 311.34375 152.074219 310.136719 155.71875 309.222656 160.050781 L 309.042969 160.902344 L 308.238281 161.238281 C 298.757812 165.210938 288.503906 169.0625 278.589844 172.785156 C 268.648438 176.519531 259.261719 180.046875 251.242188 183.460938 L 246.640625 185.417969 L 249.160156 181.09375 C 250.949219 178.019531 252.441406 175.160156 253.714844 172.34375 C 255.519531 168.347656 257.386719 163.285156 259.359375 157.921875 L 259.871094 156.527344 L 260.929688 156.441406 C 266.289062 156.007812 270.6875 155.34375 274.371094 154.414062 C 275.605469 154.105469 276.804688 153.765625 277.96875 153.402344 C 273.835938 154.292969 268.757812 154.910156 262.828125 155.242188 L 260.289062 155.386719 L 261.179688 153.003906 C 264.816406 143.277344 270.335938 128.503906 279.367188 116.304688 C 273.464844 121.851562 267.71875 129.054688 263.8125 138.152344 C 263.367188 139.183594 262.9375 140.199219 262.519531 141.203125 L 260.625 145.75 L 259.378906 140.984375 C 257.9375 135.457031 257.113281 130.496094 256.929688 126.238281 C 256.816406 123.550781 256.816406 119.9375 257.207031 115.738281 C 256.035156 121.300781 255.414062 127.601562 255.910156 134.425781 C 256.230469 138.832031 257.203125 143.917969 258.808594 149.539062 L 258.960938 150.078125 L 258.597656 151.019531 C 253.554688 163.96875 249.960938 175.414062 239 188.65625 L 237.191406 190.042969 C 230.929688 193.375 224.703125 197.308594 218.6875 201.726562 L 216.632812 203.238281 L 216.085938 200.746094 C 214.234375 192.367188 213.425781 184.953125 213.679688 178.714844 C 213.832031 174.941406 214.320312 169.585938 215.65625 163.351562 C 213.167969 170.625 211.300781 179.148438 211.203125 188.472656 C 211.148438 193.320312 211.726562 198.894531 212.914062 205.039062 L 213.105469 206.015625 L 212.335938 206.644531 C 205.28125 212.375 200.117188 217.511719 197.023438 220.808594 L 194.921875 223.050781 L 194.199219 220.0625 C 193.097656 215.519531 192.089844 210.074219 191.28125 205.695312 C 190.574219 201.886719 189.96875 198.59375 189.566406 197.316406 C 187.675781 191.324219 191.179688 154.738281 198.746094 131.414062 L 198.867188 131.035156 L 199.953125 129.957031 C 203.894531 126.03125 207.007812 122.929688 210.921875 119.253906 L 212.976562 117.28125 C 221.292969 109.300781 233.238281 97.839844 243.789062 83.285156 C 239.257812 89.046875 233.992188 94.796875 227.890625 100.230469 C 219.453125 107.792969 211.625 114.976562 204.617188 121.585938 L 199.855469 125.566406 C 200.738281 123.023438 203.667969 114.78125 204.542969 112.332031 C 208.03125 102.464844 214.070312 85.378906 216.300781 64.753906 C 215.3125 71.230469 213.796875 77.910156 211.574219 84.601562 L 210.730469 87.136719 L 207.460938 83.90625 C 203.234375 79.746094 199.585938 76.152344 197.003906 71.730469 C 195.917969 69.871094 194.84375 67.972656 193.828125 65.988281 C 195.152344 69.0625 196.84375 72.296875 198.988281 75.660156 C 200.941406 78.734375 204.503906 83.140625 209.296875 88.402344 L 209.972656 89.144531 L 207.402344 96.175781 C 194.023438 132.746094 184.355469 159.171875 181.324219 179.421875 L 180.65625 183.863281 L 178.273438 180.054688 C 172.300781 170.511719 166.6875 160.007812 161.589844 148.828125 L 161.207031 147.988281 L 161.714844 147.222656 C 165.132812 142.058594 167.773438 137.3125 169.558594 133.105469 C 173.527344 123.800781 174.941406 115.089844 175.113281 107.707031 C 174.019531 114.824219 172.074219 120.796875 170.519531 124.777344 C 168.601562 129.695312 165.476562 135.398438 161.242188 141.71875 L 159.535156 144.265625 L 158.335938 141.441406 C 153.730469 130.617188 149.53125 119.085938 145.855469 107.15625 L 145.617188 106.382812 L 146.085938 105.714844 C 149.632812 100.660156 152.148438 96.3125 153.785156 92.421875 C 155.257812 88.925781 156.234375 85.558594 156.847656 82.390625 C 156.335938 84.097656 155.808594 85.589844 155.332031 86.820312 C 153.703125 91.035156 150.902344 96.007812 147.003906 101.597656 L 145.015625 104.449219 L 144.046875 101.113281 C 139.519531 85.542969 136.488281 71.492188 134.535156 60.425781 C 134.9375 66.949219 135.828125 74.808594 137.617188 84.140625 L 138.378906 88.113281 L 135.046875 85.824219 C 127.726562 80.792969 122.203125 76.238281 118.171875 71.898438 C 117.949219 71.65625 117.722656 71.410156 117.5 71.160156 C 119.359375 73.589844 121.4375 76 123.757812 78.355469 C 127.476562 82.15625 132.285156 86.097656 138.457031 90.40625 L 138.988281 90.777344 L 139.128906 91.40625 C 141.773438 103.246094 145.570312 116.164062 150.414062 129.789062 L 151.667969 133.320312 L 148.210938 131.878906 C 134.589844 126.207031 101.253906 111.34375 85.9375 95.84375 C 85.566406 95.464844 85.199219 95.074219 84.835938 94.675781 C 86.78125 97.15625 88.976562 99.613281 91.453125 101.992188 C 106.015625 115.988281 131.828125 128.941406 150.675781 138.394531 L 151.699219 138.90625 L 151.929688 139.507812 C 152.679688 141.480469 153.4375 143.484375 154.207031 145.523438 C 158.566406 157.066406 163.503906 170.152344 170.21875 184.257812 L 171.679688 187.328125 L 168.359375 186.59375 C 158.792969 184.46875 152.792969 181.917969 145.84375 178.96875 L 144.609375 178.441406 C 135.605469 174.625 127.136719 170.007812 119.546875 164.839844 C 127.933594 172.046875 139.441406 179.902344 154.40625 185.925781 C 156.765625 186.886719 158.601562 187.785156 160.375 188.65625 C 163.660156 190.269531 166.503906 191.664062 171.671875 192.878906 L 172.429688 193.058594 L 172.777344 193.753906 C 173.390625 194.988281 177.933594 220.226562 177.980469 220.476562 L 178.503906 223.3125 C 178.660156 223.765625 175.230469 221.988281 175.265625 222.011719 C 174.832031 221.699219 171.976562 220.195312 168.671875 218.453125 C 147.832031 207.476562 92.472656 178.324219 71.246094 153.105469 C 68.769531 150.015625 66.46875 146.460938 64.390625 142.550781 C 67.324219 148.894531 71.273438 155.425781 76.574219 161.695312 C 89.035156 176.519531 108.148438 187.742188 126.632812 198.59375 L 133.238281 203.273438 L 126.777344 202.40625 C 95.601562 197.03125 68.257812 189.042969 45.113281 178.570312 C 54.121094 183.277344 66.550781 188.566406 83.878906 193.894531 L 88.082031 195.1875 L 83.925781 197.054688 C 80.972656 198.058594 78.210938 198.820312 75.714844 199.324219 C 73.636719 199.742188 71.527344 200.089844 69.386719 200.363281 C 74.648438 200.195312 79.824219 199.570312 84.808594 198.503906 C 85.554688 198.34375 90.472656 196.296875 90.957031 196.070312 C 105.828125 200.519531 123.824219 205.160156 145.96875 210.253906 L 146.242188 210.316406 L 146.480469 210.46875 C 149.695312 212.492188 152.523438 214.371094 155.128906 216.203125 L 158.808594 218.792969 L 154.328125 219.214844 C 149.945312 219.625 145.585938 220.777344 141.378906 222.636719 C 139.230469 223.585938 137.210938 224.878906 135.074219 226.242188 C 133.445312 227.285156 131.757812 228.363281 129.941406 229.332031 C 121.507812 233.816406 112.21875 235.492188 105.429688 236.714844 C 101.605469 237.398438 97.640625 237.917969 93.648438 238.265625 C 93.691406 238.265625 93.730469 238.265625 93.769531 238.265625 C 101.074219 238.265625 108.355469 237.589844 115.378906 236.261719 L 115.503906 236.230469 L 121.171875 235.359375 L 116.816406 239.191406 C 111.589844 243.117188 105.828125 247.183594 99.363281 250.101562 C 102.804688 248.941406 106.839844 247.269531 111.527344 244.886719 C 114.316406 243.464844 117.230469 241.894531 120.046875 240.378906 C 132.136719 233.867188 144.632812 227.132812 155.652344 227.132812 C 163.347656 227.132812 169.621094 230.523438 174.296875 237.207031 C 178.863281 243.722656 179.957031 252.199219 180.378906 258.007812 C 182.308594 284.472656 177.652344 315.402344 163.269531 328.4375 C 166.414062 328.71875 170.441406 330.828125 173.507812 330.828125 C 174.351562 330.828125 177.871094 332.507812 178.503906 332.46875 C 192.042969 331.535156 202.964844 329.761719 216.273438 329.144531 C 213.734375 321.347656 205.75 293.21875 208.1875 275.160156 C 212.304688 244.738281 235.339844 241.21875 252.3125 241.21875 C 254.15625 241.21875 256.09375 241.261719 258.394531 241.34375 L 259.074219 241.367188 L 259.539062 241.859375 C 261.980469 244.425781 264.390625 246.640625 266.699219 248.441406 C 270.675781 251.53125 274.855469 254.0625 278.894531 256.121094 C 276.367188 254.363281 274.179688 252.722656 272.441406 251.414062 C 270.355469 249.851562 268.089844 247.675781 265.320312 244.578125 L 262.578125 241.511719 L 266.679688 241.816406 C 268.1875 241.929688 269.71875 242.050781 271.277344 242.171875 C 276.167969 242.5625 281.222656 242.964844 286.640625 243.15625 C 289.261719 243.265625 291.796875 243.320312 294.175781 243.320312 C 297.574219 243.320312 300.574219 243.210938 303.222656 243.019531 C 292.992188 243.011719 282.046875 241.171875 271.464844 239.386719 C 264.152344 238.15625 256.589844 236.882812 249.488281 236.265625 L 243.46875 235.742188 L 248.910156 233.117188 C 251.171875 232.023438 253.289062 230.855469 255.265625 229.652344 C 250.011719 231.996094 245.332031 233.433594 241.992188 234.28125 C 238.496094 235.148438 231.359375 236.535156 228.671875 237.058594 C 228.253906 237.140625 227.746094 237.242188 227.746094 237.242188 C 216.582031 239.617188 209.589844 244.507812 205.691406 248.191406 L 203.539062 250.226562 L 202.792969 246.699219 C 201.796875 242 200.933594 237.941406 202.003906 234.878906 C 206.183594 222.867188 224.777344 205.839844 236.644531 197.585938 L 237.246094 197.167969 L 242.03125 198.25 C 263.082031 203.019531 289.28125 208.953125 309.257812 208.953125 C 310.4375 208.945312 311.601562 208.921875 312.746094 208.882812 C 295.535156 208.066406 270.605469 203.269531 244.613281 195.699219 L 240.949219 194.632812 L 244.230469 192.679688 C 257.695312 184.65625 272.171875 179.261719 288.933594 173.011719" fill="#3c3c3c"/></g><g id="change1_192"><path d="M 126.457031 9.429688 C 126.449219 9.472656 114.898438 25.046875 132.121094 36.757812 C 132.117188 36.804688 143.839844 21.820312 126.457031 9.429688" fill="#3c3c3c"/></g><g id="change1_204"><path d="M 6.375 134.34375 C 6.386719 134.402344 5.015625 146.910156 21.253906 145.945312 C 21.269531 146.011719 22.898438 133.203125 6.375 134.34375" fill="#3c3c3c"/></g><g id="change1_42"><path d="M 23.609375 121.492188 C 23.617188 121.53125 22.90625 131.523438 35.929688 130.605469 C 35.941406 130.648438 36.890625 120.507812 23.609375 121.492188" fill="#3c3c3c"/></g><g id="change1_33"><path d="M 142.027344 14.113281 C 142.027344 14.113281 133.898438 21.511719 141.605469 29.882812 C 141.601562 29.882812 149.730469 22.90625 142.027344 14.113281" fill="#3c3c3c"/></g><g id="change1_5"><path d="M 147.578125 9.371094 C 147.574219 9.378906 145.40625 15.179688 151.945312 19.257812 C 152.363281 17.386719 154.136719 13.578125 147.578125 9.371094" fill="#3c3c3c"/></g><g id="change1_41"><path d="M 193.863281 6.664062 C 193.855469 6.609375 177.414062 16.863281 188.746094 34.625 C 188.742188 34.566406 205.070312 25.242188 193.863281 6.664062" fill="#3c3c3c"/></g><g id="change1_37"><path d="M 211.183594 3.65625 C 211.175781 3.664062 199.738281 17.648438 217.179688 31.867188 C 217.167969 31.875 228.785156 18.679688 211.183594 3.65625" fill="#3c3c3c"/></g><g id="change1_87"><path d="M 114.679688 29.785156 C 114.679688 29.867188 106.273438 46.648438 125.878906 55.078125 C 125.878906 55.160156 134.574219 38.648438 114.679688 29.785156" fill="#3c3c3c"/></g><g id="change1_103"><path d="M 151.15625 26.78125 C 151.144531 26.699219 132.378906 34.65625 138.488281 53.695312 C 138.480469 53.621094 156.945312 46.539062 151.15625 26.78125" fill="#3c3c3c"/></g><g id="change1_49"><path d="M 166.402344 30.234375 C 166.394531 30.1875 152.476562 35.628906 156.984375 49.898438 C 156.980469 49.855469 170.675781 44.996094 166.402344 30.234375" fill="#3c3c3c"/></g><g id="change1_23"><path d="M 202.546875 34.121094 C 202.542969 34.070312 188.601562 38.597656 193.070312 53.160156 C 193.066406 53.113281 206.773438 49.132812 202.546875 34.121094" fill="#3c3c3c"/></g><g id="change1_209"><path d="M 165.097656 5.34375 C 165.089844 5.289062 151.148438 10.792969 155.664062 25.042969 C 155.660156 24.992188 169.378906 20.089844 165.097656 5.34375" fill="#3c3c3c"/></g><g id="change1_139"><path d="M 176.511719 55.964844 C 176.511719 55.90625 161.632812 57.792969 161.722656 72.816406 C 161.722656 72.765625 176.230469 71.273438 176.511719 55.964844" fill="#3c3c3c"/></g><g id="change1_145"><path d="M 206.023438 42.027344 C 206.019531 42.039062 199.34375 51.3125 211.570312 58.574219 C 211.566406 58.585938 218.390625 49.707031 206.023438 42.027344" fill="#3c3c3c"/></g><g id="change1_125"><path d="M 49.734375 61.53125 C 49.742188 61.578125 46.960938 72.667969 60.695312 72.59375 C 60.703125 72.640625 63.707031 61.484375 49.734375 61.53125" fill="#3c3c3c"/></g><g id="change1_231"><path d="M 172.042969 75.402344 C 172.042969 75.359375 159.265625 76.417969 160.035156 89.066406 C 160.035156 89.03125 172.515625 88.3125 172.042969 75.402344" fill="#3c3c3c"/></g><g id="change1_7"><path d="M 231.964844 26.410156 C 231.964844 26.363281 219.152344 26.007812 219.859375 38.699219 C 219.859375 38.660156 232.378906 39.269531 231.964844 26.410156" fill="#3c3c3c"/></g><g id="change1_128"><path d="M 187.058594 76.402344 C 187.058594 76.378906 176.734375 77.671875 178.257812 87.90625 C 178.257812 87.882812 188.367188 86.882812 187.058594 76.402344" fill="#3c3c3c"/></g><g id="change1_149"><path d="M 187.148438 55.050781 C 187.148438 55.078125 186.617188 45.828125 174.859375 46.324219 C 174.859375 46.355469 175.117188 55.191406 187.148438 55.050781" fill="#3c3c3c"/></g><g id="change1_178"><path d="M 189.46875 66.085938 C 189.46875 66.109375 189.007812 58.046875 178.757812 58.417969 C 178.757812 58.4375 178.980469 66.167969 189.46875 66.085938" fill="#3c3c3c"/></g><g id="change1_66"><path d="M 193.335938 72.4375 C 193.335938 72.449219 190.691406 66.410156 183.03125 68.921875 C 183.03125 68.933594 185.4375 74.761719 193.335938 72.4375" fill="#3c3c3c"/></g><g id="change1_236"><path d="M 202.296875 86.546875 C 202.296875 86.566406 198.773438 78.4375 188.542969 81.695312 C 188.542969 81.71875 191.753906 89.515625 202.296875 86.546875" fill="#3c3c3c"/></g><g id="change1_166"><path d="M 179.871094 65.917969 C 179.867188 65.898438 170.273438 69.597656 174.757812 79.078125 C 174.753906 79.058594 184.226562 75.734375 179.871094 65.917969" fill="#3c3c3c"/></g><g id="change1_114"><path d="M 206.582031 27.992188 C 206.578125 28.011719 202.398438 36.152344 213.117188 40.925781 C 213.113281 40.941406 217.464844 33.066406 206.582031 27.992188" fill="#3c3c3c"/></g><g id="change1_91"><path d="M 173.148438 0.253906 C 173.148438 0.273438 168.976562 8.675781 179.738281 12.820312 C 179.734375 12.839844 184.074219 4.664062 173.148438 0.253906" fill="#3c3c3c"/></g><g id="change1_76"><path d="M 111.257812 15.382812 C 111.257812 15.410156 107.152344 24.214844 117.851562 27.074219 C 117.851562 27.097656 122.113281 18.460938 111.257812 15.382812" fill="#3c3c3c"/></g><g id="change1_144"><path d="M 167.804688 108.9375 C 167.804688 108.945312 175.625 99.863281 164.351562 92.257812 C 164.347656 92.265625 156.460938 100.976562 167.804688 108.9375" fill="#3c3c3c"/></g><g id="change1_55"><path d="M 185.375 43.394531 C 185.375 43.433594 187.769531 32.265625 173.585938 29.882812 C 173.582031 29.917969 170.933594 40.566406 185.375 43.394531" fill="#3c3c3c"/></g><g id="change1_187"><path d="M 179.507812 100.257812 C 179.507812 100.230469 190.601562 99.714844 190.035156 88.746094 C 190.035156 88.71875 179.175781 88.96875 179.507812 100.257812" fill="#3c3c3c"/></g><g id="change1_186"><path d="M 135.988281 151.503906 C 135.988281 151.480469 147.007812 150.300781 146.410156 139.371094 C 146.40625 139.351562 135.617188 140.277344 135.988281 151.503906" fill="#3c3c3c"/></g><g id="change1_183"><path d="M 160.074219 58.53125 C 160.070312 58.5 171.195312 57.636719 170.613281 46.679688 C 170.609375 46.648438 159.71875 47.261719 160.074219 58.53125" fill="#3c3c3c"/></g><g id="change1_214"><path d="M 166.695312 26.515625 C 166.695312 26.480469 177.851562 25.738281 177.273438 14.777344 C 177.273438 14.742188 166.351562 15.230469 166.695312 26.515625" fill="#3c3c3c"/></g><g id="change1_173"><path d="M 158.054688 109.527344 C 158.050781 109.558594 152.816406 120.59375 166.699219 125.566406 C 166.699219 125.59375 172.152344 114.828125 158.054688 109.527344" fill="#3c3c3c"/></g><g id="change1_72"><path d="M 143.703125 65.882812 C 143.699219 65.914062 138.464844 77.0625 152.390625 81.671875 C 152.390625 81.703125 157.84375 70.789062 143.703125 65.882812" fill="#3c3c3c"/></g><g id="change1_81"><path d="M 146.339844 54.328125 C 146.339844 54.355469 143.300781 63.96875 155.472656 66.523438 C 155.472656 66.550781 158.730469 57.082031 146.339844 54.328125" fill="#3c3c3c"/></g><g id="change1_232"><path d="M 200.847656 56.371094 C 200.84375 56.394531 195.550781 67.066406 209.476562 72.984375 C 209.472656 73.007812 214.992188 62.664062 200.847656 56.371094" fill="#3c3c3c"/></g><g id="change1_213"><path d="M 203.160156 151.855469 C 203.15625 151.863281 196.539062 161.273438 208.660156 168.296875 C 208.65625 168.304688 215.417969 159.289062 203.160156 151.855469" fill="#3c3c3c"/></g><g id="change1_221"><path d="M 207.773438 141.960938 C 207.773438 141.96875 203.625 150.183594 214.246094 154.785156 C 214.242188 154.796875 218.554688 146.863281 207.773438 141.960938" fill="#3c3c3c"/></g><g id="change1_227"><path d="M 198.035156 166.289062 C 198.03125 166.308594 192.785156 177.089844 206.589844 182.753906 C 206.585938 182.773438 212.054688 172.335938 198.035156 166.289062" fill="#3c3c3c"/></g><g id="change1_211"><path d="M 197.851562 182.949219 C 197.851562 182.96875 192.613281 193.761719 206.398438 199.394531 C 206.394531 199.410156 211.855469 188.964844 197.851562 182.949219" fill="#3c3c3c"/></g><g id="change1_207"><path d="M 188.5625 121.824219 C 188.5625 121.785156 175.148438 120.660156 173.535156 134.019531 C 173.535156 133.984375 186.578125 135.335938 188.5625 121.824219" fill="#3c3c3c"/></g><g id="change1_223"><path d="M 178.929688 113.644531 C 178.933594 113.617188 191.390625 116.863281 195.691406 104.683594 C 195.695312 104.65625 183.605469 101.046875 178.929688 113.644531" fill="#3c3c3c"/></g><g id="change1_31"><path d="M 215.246094 87.644531 C 215.25 87.617188 227.675781 91.664062 232.128906 79.867188 C 232.132812 79.84375 220.085938 75.40625 215.246094 87.644531" fill="#3c3c3c"/></g><g id="change1_109"><path d="M 219.742188 74.90625 C 219.746094 74.871094 232.683594 76.945312 234.371094 64.433594 C 234.375 64.398438 221.761719 61.964844 219.742188 74.90625" fill="#3c3c3c"/></g><g id="change1_171"><path d="M 220.257812 60.78125 C 220.257812 60.746094 233.136719 63.363281 235.480469 51.011719 C 235.484375 50.972656 222.945312 47.984375 220.257812 60.78125" fill="#3c3c3c"/></g><g id="change1_89"><path d="M 221.3125 48.429688 C 221.316406 48.390625 234.203125 51.070312 236.550781 38.730469 C 236.554688 38.695312 224.007812 35.640625 221.3125 48.429688" fill="#3c3c3c"/></g><g id="change1_131"><path d="M 269.621094 20.136719 C 269.617188 20.089844 257.542969 26.109375 266.203125 40.3125 C 266.203125 40.265625 278.183594 34.890625 269.621094 20.136719" fill="#3c3c3c"/></g><g id="change1_105"><path d="M 256.8125 100.703125 C 256.816406 100.714844 246.488281 91.894531 235.285156 100.269531 C 235.285156 100.289062 245.136719 108.625 256.8125 100.703125" fill="#3c3c3c"/></g><g id="change1_65"><path d="M 248.433594 109.640625 C 248.441406 109.640625 236.816406 102.476562 227.5 112.664062 C 227.503906 112.671875 238.648438 119.488281 248.433594 109.640625" fill="#3c3c3c"/></g><g id="change1_60"><path d="M 233.824219 119.707031 C 233.828125 119.699219 221.734375 113.53125 213.3125 124.554688 C 213.316406 124.550781 224.925781 130.476562 233.824219 119.707031" fill="#3c3c3c"/></g><g id="change1_153"><path d="M 251.777344 45.300781 C 251.777344 45.273438 241.972656 51.289062 251.054688 62.03125 C 251.050781 62.007812 260.835938 56.507812 251.777344 45.300781" fill="#3c3c3c"/></g><g id="change1_40"><path d="M 280.269531 44.371094 C 280.273438 44.347656 268.910156 39.714844 265.261719 50.3125 C 265.265625 50.292969 276.28125 54.839844 280.269531 44.371094" fill="#3c3c3c"/></g><g id="change1_140"><path d="M 257.445312 33.027344 C 257.445312 33.019531 250.441406 38.773438 258.988281 46.84375 C 258.984375 46.835938 266.027344 41.484375 257.445312 33.027344" fill="#3c3c3c"/></g><g id="change1_152"><path d="M 282.949219 97.167969 C 282.949219 97.144531 274.378906 100.851562 280.707031 110.222656 C 280.707031 110.199219 289.214844 106.882812 282.949219 97.167969" fill="#3c3c3c"/></g><g id="change1_163"><path d="M 291.265625 89.9375 C 291.265625 89.914062 282.710938 93.445312 289.023438 102.894531 C 289.023438 102.871094 297.523438 99.726562 291.265625 89.9375" fill="#3c3c3c"/></g><g id="change1_157"><path d="M 200.742188 -0.00390625 C 200.742188 -0.00390625 193.890625 6.359375 202.316406 13.476562 C 202.3125 13.472656 209.207031 7.476562 200.742188 -0.00390625" fill="#3c3c3c"/></g><g id="change1_148"><path d="M 315.152344 57.085938 C 315.15625 57.042969 303.730469 57.457031 307.519531 69.441406 C 307.523438 69.398438 318.757812 69.296875 315.152344 57.085938" fill="#3c3c3c"/></g><g id="change1_34"><path d="M 322.011719 118.890625 C 322.011719 118.875 315.308594 123.78125 323.4375 132 C 323.4375 131.980469 330.167969 127.480469 322.011719 118.890625" fill="#3c3c3c"/></g><g id="change1_62"><path d="M 356.160156 135.3125 C 356.167969 135.296875 346.40625 131.972656 345.203125 141.066406 C 345.207031 141.054688 354.722656 144.363281 356.160156 135.3125" fill="#3c3c3c"/></g><g id="change1_102"><path d="M 346.007812 94.195312 C 346.019531 94.160156 334.367188 90.648438 333.710938 101.761719 C 333.71875 101.734375 345.085938 105.25 346.007812 94.195312" fill="#3c3c3c"/></g><g id="change1_119"><path d="M 334.585938 76.851562 C 334.59375 76.8125 323.378906 75.414062 325.167969 86.738281 C 325.175781 86.699219 336.15625 88.273438 334.585938 76.851562" fill="#3c3c3c"/></g><g id="change1_108"><path d="M 351.875 146.066406 C 351.878906 146.066406 342.835938 140.59375 338.398438 148.300781 C 338.402344 148.304688 347.160156 153.59375 351.875 146.066406" fill="#3c3c3c"/></g><g id="change1_28"><path d="M 335.496094 132.53125 C 335.5 132.5 326.328125 133.660156 330.351562 143.402344 C 330.355469 143.371094 339.390625 142.5 335.496094 132.53125" fill="#3c3c3c"/></g><g id="change1_88"><path d="M 300.308594 45.316406 C 300.308594 45.296875 292.914062 49.589844 300.410156 58.394531 C 300.410156 58.378906 307.800781 54.488281 300.308594 45.316406" fill="#3c3c3c"/></g><g id="change1_48"><path d="M 282.167969 31.585938 C 282.171875 31.554688 272.207031 31.121094 273.800781 41.15625 C 273.804688 41.128906 283.566406 41.769531 282.167969 31.585938" fill="#3c3c3c"/></g><g id="change1_3"><path d="M 325.148438 140.390625 C 325.152344 140.363281 315.953125 141.753906 319.988281 151.46875 C 319.992188 151.441406 329.058594 150.335938 325.148438 140.390625" fill="#3c3c3c"/></g><g id="change1_100"><path d="M 339.488281 164.488281 C 339.484375 164.515625 333.648438 156.445312 324.609375 160.289062 C 324.609375 160.3125 330.144531 168.058594 339.488281 164.488281" fill="#3c3c3c"/></g><g id="change1_61"><path d="M 331.5625 172.105469 C 331.5625 172.132812 327.878906 163.503906 317.488281 165.140625 C 317.488281 165.171875 320.882812 173.464844 331.5625 172.105469" fill="#3c3c3c"/></g><g id="change1_234"><path d="M 314.875 186.203125 C 314.871094 186.226562 311.167969 177.640625 300.742188 179.660156 C 300.742188 179.683594 304.148438 187.960938 314.875 186.203125" fill="#3c3c3c"/></g><g id="change1_92"><path d="M 331.082031 188.824219 C 331.078125 188.847656 327.398438 180.273438 317.011719 182.035156 C 317.007812 182.0625 320.402344 190.324219 331.082031 188.824219" fill="#3c3c3c"/></g><g id="change1_132"><path d="M 346.011719 168.308594 C 346.015625 168.289062 336.175781 166.460938 336.367188 175.996094 C 336.371094 175.976562 345.984375 177.886719 346.011719 168.308594" fill="#3c3c3c"/></g><g id="change1_238"><path d="M 348.476562 184.386719 C 348.476562 184.402344 341.113281 177.289062 333.671875 182.933594 C 333.671875 182.953125 340.726562 189.789062 348.476562 184.386719" fill="#3c3c3c"/></g><g id="change1_29"><path d="M 346.515625 155.011719 C 346.519531 155.019531 338.257812 148.558594 332.125 155.226562 C 332.125 155.238281 340.085938 161.457031 346.515625 155.011719" fill="#3c3c3c"/></g><g id="change1_11"><path d="M 287.121094 162.273438 C 287.121094 162.292969 281.765625 154.191406 272.191406 158.269531 C 272.191406 158.292969 277.226562 166.097656 287.121094 162.273438" fill="#3c3c3c"/></g><g id="change1_51"><path d="M 297.679688 159.253906 C 297.679688 159.273438 292.359375 151.109375 282.78125 154.984375 C 282.78125 155.007812 287.785156 162.863281 297.679688 159.253906" fill="#3c3c3c"/></g><g id="change1_174"><path d="M 306.257812 153.960938 C 306.257812 153.980469 301.445312 146.53125 292.769531 149.875 C 292.769531 149.898438 297.300781 157.070312 306.257812 153.960938" fill="#3c3c3c"/></g><g id="change1_162"><path d="M 309.625 145.835938 C 309.625 145.839844 304.101562 141.535156 299.683594 146.183594 C 299.6875 146.1875 304.988281 150.390625 309.625 145.835938" fill="#3c3c3c"/></g><g id="change1_160"><path d="M 286.433594 133.671875 C 286.433594 133.632812 275.203125 137.144531 281.546875 149.050781 C 281.546875 149.011719 292.648438 145.949219 286.433594 133.671875" fill="#3c3c3c"/></g><g id="change1_167"><path d="M 295.792969 130.675781 C 295.792969 130.648438 286.746094 133.464844 292.066406 143.152344 C 292.066406 143.128906 301.015625 140.660156 295.792969 130.675781" fill="#3c3c3c"/></g><g id="change1_32"><path d="M 274.617188 137.601562 C 274.617188 137.578125 265.539062 140.753906 270.890625 150.347656 C 270.890625 150.324219 279.875 147.503906 274.617188 137.601562" fill="#3c3c3c"/></g><g id="change1_120"><path d="M 235.871094 70.824219 C 235.867188 70.816406 228.875 76.960938 237.433594 84.652344 C 237.429688 84.644531 244.46875 78.890625 235.871094 70.824219" fill="#3c3c3c"/></g><g id="change1_113"><path d="M 217.222656 90.96875 C 217.21875 90.964844 210.234375 97.375 218.804688 104.800781 C 218.804688 104.796875 225.832031 98.761719 217.222656 90.96875" fill="#3c3c3c"/></g><g id="change1_35"><path d="M 241.585938 56.355469 C 241.582031 56.34375 232.597656 64.265625 243.789062 74.289062 C 243.785156 74.277344 252.828125 66.886719 241.585938 56.355469" fill="#3c3c3c"/></g><g id="change1_124"><path d="M 245.011719 89.714844 C 245.015625 89.71875 255.539062 97.316406 264.171875 88.246094 C 264.175781 88.253906 254.117188 80.238281 245.011719 89.714844" fill="#3c3c3c"/></g><g id="change1_111"><path d="M 219.285156 149.78125 C 219.289062 149.71875 236.472656 146.902344 231.832031 129.597656 C 231.835938 129.53125 214.914062 131.945312 219.285156 149.78125" fill="#3c3c3c"/></g><g id="change1_137"><path d="M 294.53125 102.945312 C 294.542969 102.894531 311.820312 108.664062 315.445312 92.925781 C 315.460938 92.878906 298.679688 86.421875 294.53125 102.945312" fill="#3c3c3c"/></g><g id="change1_82"><path d="M 308.097656 87.386719 C 308.113281 87.296875 325.429688 89.148438 323.015625 71.964844 C 323.027344 71.875 306.027344 69.546875 308.097656 87.386719" fill="#3c3c3c"/></g><g id="change1_10"><path d="M 301.441406 141.410156 C 301.449219 141.332031 318.175781 139.933594 312.660156 122.703125 C 312.671875 122.625 296.171875 123.613281 301.441406 141.410156" fill="#3c3c3c"/></g><g id="change1_97"><path d="M 328.871094 130.953125 C 328.878906 130.90625 341.167969 130.527344 337.121094 117.777344 C 337.128906 117.730469 325.011719 117.808594 328.871094 130.953125" fill="#3c3c3c"/></g><g id="change1_208"><path d="M 306.6875 120.75 C 306.691406 120.703125 319.070312 119.890625 314.992188 107.078125 C 314.996094 107.03125 302.789062 107.546875 306.6875 120.75" fill="#3c3c3c"/></g><g id="change1_39"><path d="M 345.296875 131.621094 C 345.308594 131.535156 359.929688 128.964844 351.5625 112.703125 C 351.574219 112.617188 337.050781 114.921875 345.296875 131.621094" fill="#3c3c3c"/></g><g id="change1_202"><path d="M 286.28125 62.4375 C 286.28125 62.382812 299.464844 55.855469 287.78125 40.640625 C 287.78125 40.585938 274.613281 46.863281 286.28125 62.4375" fill="#3c3c3c"/></g><g id="change1_50"><path d="M 224.519531 23.347656 C 224.519531 23.300781 236.886719 21.4375 233.183594 8.953125 C 233.1875 8.90625 221.007812 10.507812 224.519531 23.347656" fill="#3c3c3c"/></g><g id="change1_20"><path d="M 257.453125 29.734375 C 257.445312 29.746094 263.433594 20.753906 250.78125 13.046875 C 250.777344 13.058594 244.65625 21.695312 257.453125 29.734375" fill="#3c3c3c"/></g><g id="change1_15"><path d="M 265.765625 89.496094 C 265.777344 89.441406 283.1875 94.527344 286.828125 78.351562 C 286.839844 78.296875 269.910156 72.558594 265.765625 89.496094" fill="#3c3c3c"/></g><g id="change1_56"><path d="M 251.367188 78.480469 C 251.367188 78.484375 261.113281 85.648438 269.113281 77.367188 C 269.117188 77.375 259.800781 69.84375 251.367188 78.480469" fill="#3c3c3c"/></g><g id="change1_68"><path d="M 258.152344 68.574219 C 258.15625 68.566406 268.820312 74.695312 275.125 65.386719 C 275.128906 65.386719 264.871094 58.871094 258.152344 68.574219" fill="#3c3c3c"/></g><g id="change1_17"><path d="M 288.257812 63.761719 C 288.261719 63.71875 276.523438 63.644531 278.894531 75.550781 C 278.898438 75.511719 290.402344 75.851562 288.257812 63.761719" fill="#3c3c3c"/></g><g id="change1_155"><path d="M 317.878906 105.015625 C 317.890625 104.933594 334.96875 107.105469 332.414062 90.257812 C 332.429688 90.171875 315.664062 87.527344 317.878906 105.015625" fill="#3c3c3c"/></g><g id="change1_228"><path d="M 322.425781 115.390625 C 322.4375 115.351562 338.8125 121.5 341.808594 106.75 C 341.824219 106.710938 325.921875 99.910156 322.425781 115.390625" fill="#3c3c3c"/></g><g id="change1_59"><path d="M 263.269531 58.746094 C 263.273438 58.738281 273.9375 64.992188 280.238281 55.796875 C 280.242188 55.792969 269.992188 49.152344 263.269531 58.746094" fill="#3c3c3c"/></g><g id="change1_185"><path d="M 233.125 150.292969 C 233.125 150.277344 223 148.167969 220.929688 158.113281 C 220.933594 158.101562 230.761719 160.3125 233.125 150.292969" fill="#3c3c3c"/></g><g id="change1_69"><path d="M 217.304688 178.386719 C 217.308594 178.367188 229.199219 181.230469 232.378906 169.6875 C 232.382812 169.664062 220.824219 166.46875 217.304688 178.386719" fill="#3c3c3c"/></g><g id="change1_217"><path d="M 217.789062 187.753906 C 217.792969 187.742188 229.46875 192.289062 234.84375 181.09375 C 234.84375 181.085938 223.550781 176.191406 217.789062 187.753906" fill="#3c3c3c"/></g><g id="change1_12"><path d="M 218.8125 167.40625 C 218.816406 167.390625 229.003906 169.839844 231.671875 159.953125 C 231.675781 159.9375 221.777344 157.21875 218.8125 167.40625" fill="#3c3c3c"/></g><g id="change1_83"><path d="M 278.738281 94.046875 C 278.742188 94.035156 269.460938 89.171875 264.828125 97.671875 C 264.832031 97.664062 273.792969 102.421875 278.738281 94.046875" fill="#3c3c3c"/></g><g id="change1_43"><path d="M 262.617188 107.683594 C 262.621094 107.683594 271.699219 112.976562 277.25 104.980469 C 277.253906 104.980469 268.523438 99.40625 262.617188 107.683594" fill="#3c3c3c"/></g><g id="change1_182"><path d="M 287.1875 111.207031 C 287.191406 111.207031 296.222656 116.789062 301.746094 109.121094 C 301.75 109.125 293.078125 103.253906 287.1875 111.207031" fill="#3c3c3c"/></g><g id="change1_14"><path d="M 282.96875 118.207031 C 282.972656 118.214844 291.296875 124.578125 298.101562 117.742188 C 298.101562 117.75 290.148438 111.121094 282.96875 118.207031" fill="#3c3c3c"/></g><g id="change1_70"><path d="M 277.882812 126.683594 C 277.886719 126.691406 286.21875 132.96875 293.023438 126.023438 C 293.027344 126.03125 285.066406 119.496094 277.882812 126.683594" fill="#3c3c3c"/></g><g id="change1_154"><path d="M 241.328125 119.511719 C 241.328125 119.53125 240.964844 128.46875 252.542969 130.023438 C 252.539062 130.046875 253.1875 121.25 241.328125 119.511719" fill="#3c3c3c"/></g><g id="change1_197"><path d="M 240.152344 130.308594 C 240.148438 130.339844 239.722656 140.949219 253.46875 142.75 C 253.464844 142.78125 254.234375 132.316406 240.152344 130.308594" fill="#3c3c3c"/></g><g id="change1_67"><path d="M 259.726562 118.90625 C 259.730469 118.894531 269.609375 122.503906 272.941406 113.339844 C 272.945312 113.328125 263.371094 109.429688 259.726562 118.90625" fill="#3c3c3c"/></g><g id="change1_2"><path d="M 0 149.785156 C 0.0234375 149.882812 -0.15625 166.0625 21.898438 163.371094 C 21.921875 163.480469 22.4375 146.539062 0 149.785156" fill="#3c3c3c"/></g><g id="change1_176"><path d="M 55.210938 72.910156 C 55.207031 72.9375 41.320312 86.941406 53.796875 99.371094 C 53.792969 99.398438 67.6875 86.085938 55.210938 72.910156" fill="#3c3c3c"/></g><g id="change1_203"><path d="M 298.871094 61.507812 C 298.871094 61.433594 284.667969 69.644531 297.007812 87.261719 C 297.007812 87.183594 311.144531 79.886719 298.871094 61.507812" fill="#3c3c3c"/></g><g id="change1_194"><path d="M 243.753906 20.050781 C 243.746094 19.996094 229.386719 29.667969 241.953125 46.578125 C 241.949219 46.523438 256.265625 37.746094 243.753906 20.050781" fill="#3c3c3c"/></g><g id="change1_193"><path d="M 83.730469 42.746094 C 83.730469 42.746094 75.367188 50.261719 82.078125 58.128906 C 82.074219 58.128906 90.410156 51.023438 83.730469 42.746094" fill="#3c3c3c"/></g><g id="change1_161"><path d="M 83.960938 35.082031 C 83.964844 35.117188 82.246094 44.660156 94.179688 45.683594 C 94.183594 45.722656 96.125 36.183594 83.960938 35.082031" fill="#3c3c3c"/></g><g id="change1_126"><path d="M 98.644531 23.261719 C 98.640625 23.316406 88.089844 38.683594 104.703125 48.589844 C 104.703125 48.644531 115.425781 33.738281 98.644531 23.261719" fill="#3c3c3c"/></g><g id="change1_64"><path d="M 14.832031 109.933594 C 14.847656 109.984375 17.136719 122.007812 34.496094 117.339844 C 34.511719 117.402344 32.550781 104.824219 14.832031 109.933594" fill="#3c3c3c"/></g><g id="change1_196"><path d="M 80.765625 130.433594 C 80.773438 130.484375 80.140625 143.320312 96.804688 143.640625 C 96.8125 143.695312 97.789062 130.714844 80.765625 130.433594" fill="#3c3c3c"/></g><g id="change1_205"><path d="M 68.457031 45.988281 C 68.453125 46.046875 55.992188 61.960938 71.875 72.925781 C 71.871094 72.984375 84.449219 57.617188 68.457031 45.988281" fill="#3c3c3c"/></g><g id="change1_16"><path d="M 2.960938 171.855469 C 2.976562 171.882812 9.464844 185.699219 31.183594 177.046875 C 31.207031 177.09375 25.15625 162.363281 2.960938 171.855469" fill="#3c3c3c"/></g><g id="change1_142"><path d="M 28.152344 144.839844 C 28.164062 144.945312 20.335938 161.847656 39.671875 167.742188 C 39.679688 167.84375 47.746094 150.914062 28.152344 144.839844" fill="#3c3c3c"/></g><g id="change1_86"><path d="M 91.664062 156.984375 C 91.667969 157.007812 94.554688 167.355469 108.433594 163.289062 C 108.4375 163.316406 105.910156 152.785156 91.664062 156.984375" fill="#3c3c3c"/></g><g id="change1_106"><path d="M 93.972656 79.082031 C 93.96875 79.085938 83.757812 87.804688 92.929688 96.648438 C 92.925781 96.652344 103.132812 88.402344 93.972656 79.082031" fill="#3c3c3c"/></g><g id="change1_93"><path d="M 84.527344 178.800781 C 84.535156 178.824219 80.441406 166.722656 64.460938 172.925781 C 64.46875 172.953125 68.035156 184.460938 84.527344 178.800781" fill="#3c3c3c"/></g><g id="change1_36"><path d="M 86.375 70.640625 C 86.371094 70.640625 77.476562 77.816406 84.742188 85.476562 C 84.738281 85.476562 93.609375 78.699219 86.375 70.640625" fill="#3c3c3c"/></g><g id="change1_74"><path d="M 104.523438 59.585938 C 104.53125 59.613281 100.414062 49.488281 86.855469 55.574219 C 86.863281 55.605469 90.519531 65.195312 104.523438 59.585938" fill="#3c3c3c"/></g><g id="change1_177"><path d="M 111.757812 71.609375 C 111.761719 71.636719 107.648438 61.425781 94.074219 67.28125 C 94.082031 67.3125 97.738281 77 111.757812 71.609375" fill="#3c3c3c"/></g><g id="change1_94"><path d="M 119.328125 80.582031 C 119.332031 80.59375 116.453125 73.398438 106.914062 77.277344 C 106.917969 77.289062 109.488281 84.207031 119.328125 80.582031" fill="#3c3c3c"/></g><g id="change1_71"><path d="M 128.332031 76.359375 C 128.328125 76.359375 135.039062 70.589844 128.457031 64.453125 C 128.453125 64.453125 121.753906 69.980469 128.332031 76.359375" fill="#3c3c3c"/></g><g id="change1_141"><path d="M 139.339844 124.355469 C 139.339844 124.359375 146.035156 118.75 139.472656 112.433594 C 139.472656 112.433594 132.78125 117.789062 139.339844 124.355469" fill="#3c3c3c"/></g><g id="change1_135"><path d="M 253.148438 153.371094 C 253.148438 153.382812 254.542969 145.773438 244.664062 143.480469 C 244.664062 143.488281 243.089844 150.824219 253.148438 153.371094" fill="#3c3c3c"/></g><g id="change1_47"><path d="M 128.015625 88.84375 C 128.015625 88.855469 125.144531 81.601562 115.59375 85.320312 C 115.59375 85.335938 118.164062 92.316406 128.015625 88.84375" fill="#3c3c3c"/></g><g id="change1_117"><path d="M 115.765625 61.621094 C 115.765625 61.625 121.316406 55.632812 114.492188 50.859375 C 114.488281 50.863281 108.917969 56.609375 115.765625 61.621094" fill="#3c3c3c"/></g><g id="change1_233"><path d="M 122.933594 94.535156 C 122.933594 94.539062 126.917969 100.496094 135.109375 96.039062 C 135.113281 96.050781 131.402344 89.96875 122.933594 94.535156" fill="#3c3c3c"/></g><g id="change1_189"><path d="M 120.824219 68.726562 C 120.820312 68.722656 127.835938 64.203125 122.996094 57.699219 C 122.992188 57.695312 116.035156 61.996094 120.824219 68.726562" fill="#3c3c3c"/></g><g id="change1_84"><path d="M 68.324219 113.21875 C 68.316406 113.207031 57.195312 119.308594 62.347656 129.351562 C 62.339844 129.339844 73.335938 123.726562 68.324219 113.21875" fill="#3c3c3c"/></g><g id="change1_179"><path d="M 73.800781 123.890625 C 73.796875 123.878906 62.664062 129.832031 67.816406 139.976562 C 67.808594 139.964844 78.816406 134.492188 73.800781 123.890625" fill="#3c3c3c"/></g><g id="change1_123"><path d="M 76.019531 136.367188 C 76.019531 136.371094 68.023438 142.636719 74.421875 149.613281 C 74.421875 149.617188 82.386719 143.695312 76.019531 136.367188" fill="#3c3c3c"/></g><g id="change1_184"><path d="M 41.472656 183.628906 C 41.476562 183.625 36.367188 177.289062 26.957031 184.003906 C 26.960938 184 31.6875 190.171875 41.472656 183.628906" fill="#3c3c3c"/></g><g id="change1_75"><path d="M 66.882812 194.132812 C 66.886719 194.128906 61.75 187.476562 52.273438 193.871094 C 52.277344 193.871094 57.035156 200.347656 66.882812 194.132812" fill="#3c3c3c"/></g><g id="change1_78"><path d="M 50.496094 176.816406 C 50.496094 176.835938 54.71875 168.359375 44.832031 165.890625 C 44.835938 165.914062 40.476562 174.019531 50.496094 176.816406" fill="#3c3c3c"/></g><g id="change1_127"><path d="M 60.804688 181.113281 C 60.804688 181.132812 65.042969 172.6875 55.128906 170.019531 C 55.132812 170.042969 50.761719 178.121094 60.804688 181.113281" fill="#3c3c3c"/></g><g id="change1_175"><path d="M 63.710938 156.582031 C 63.714844 156.59375 59.042969 147.558594 46.511719 154.308594 C 46.519531 154.320312 50.734375 162.972656 63.710938 156.582031" fill="#3c3c3c"/></g><g id="change1_121"><path d="M 63.851562 101.964844 C 63.847656 101.957031 54.546875 107.546875 59.335938 115.796875 C 59.332031 115.789062 68.539062 110.605469 63.851562 101.964844" fill="#3c3c3c"/></g><g id="change1_95"><path d="M 96.175781 185.648438 C 96.179688 185.648438 91.015625 179.238281 82.117188 185.316406 C 82.121094 185.316406 86.933594 191.566406 96.175781 185.648438" fill="#3c3c3c"/></g><g id="change1_172"><path d="M 95.25 246.710938 C 95.253906 246.710938 90.105469 240.203125 81.238281 246.054688 C 81.242188 246.050781 86.042969 252.429688 95.25 246.710938" fill="#3c3c3c"/></g><g id="change1_158"><path d="M 28.289062 134.902344 C 28.292969 134.921875 29.644531 143.226562 41.035156 139.640625 C 41.042969 139.667969 39.941406 131.195312 28.289062 134.902344" fill="#3c3c3c"/></g><g id="change1_224"><path d="M 83.109375 59.542969 C 83.105469 59.527344 73.105469 64.921875 77.636719 73.988281 C 77.632812 73.972656 87.515625 69.015625 83.109375 59.542969" fill="#3c3c3c"/></g><g id="change1_199"><path d="M 148.070312 188.335938 C 148.070312 188.335938 140.105469 180.824219 130.089844 189.269531 C 130.089844 189.269531 137.613281 196.59375 148.070312 188.335938" fill="#3c3c3c"/></g><g id="change1_226"><path d="M 98.59375 202.835938 C 98.589844 202.835938 89.539062 208.855469 96.007812 217.292969 C 96.007812 217.296875 105.003906 211.652344 98.59375 202.835938" fill="#3c3c3c"/></g><g id="change1_52"><path d="M 108.585938 205.730469 C 108.585938 205.730469 101.597656 210.296875 106.585938 216.882812 C 106.582031 216.882812 113.527344 212.601562 108.585938 205.730469" fill="#3c3c3c"/></g><g id="change1_188"><path d="M 176.476562 144.230469 C 176.472656 144.214844 166.375 148.007812 170.875 158.035156 C 170.871094 158.015625 180.839844 154.601562 176.476562 144.230469" fill="#3c3c3c"/></g><g id="change1_22"><path d="M 84.96875 147.613281 C 84.972656 147.625 88.65625 155.484375 99.5 150.734375 C 99.503906 150.746094 96.128906 142.730469 84.96875 147.613281" fill="#3c3c3c"/></g><g id="change1_8"><path d="M 103.554688 169.042969 C 103.558594 169.058594 108.445312 179.421875 122.492188 173.644531 C 122.496094 173.667969 118.019531 163.0625 103.554688 169.042969" fill="#3c3c3c"/></g><g id="change1_210"><path d="M 116.574219 180.003906 C 116.578125 180.011719 123.304688 189.609375 136.386719 182.304688 C 136.390625 182.320312 130.097656 172.457031 116.574219 180.003906" fill="#3c3c3c"/></g><g id="change1_19"><path d="M 148.9375 176.6875 C 148.933594 176.691406 158.050781 168.300781 147.972656 159.527344 C 147.96875 159.535156 138.84375 167.558594 148.9375 176.6875" fill="#3c3c3c"/></g><g id="change1_229"><path d="M 134.863281 170.089844 C 134.859375 170.105469 142.90625 160.671875 131.644531 153.257812 C 131.644531 153.269531 123.539062 162.300781 134.863281 170.089844" fill="#3c3c3c"/></g><g id="change1_116"><path d="M 122.074219 161.285156 C 122.074219 161.296875 129.601562 152.914062 119.777344 146.121094 C 119.773438 146.136719 112.207031 154.15625 122.074219 161.285156" fill="#3c3c3c"/></g><g id="change1_237"><path d="M 109.949219 152.664062 C 109.949219 152.679688 116.980469 143.871094 106.722656 137.820312 C 106.722656 137.835938 99.625 146.269531 109.949219 152.664062" fill="#3c3c3c"/></g><g id="change1_181"><path d="M 129.800781 120.214844 C 129.796875 120.226562 138.957031 110.066406 126.996094 101.804688 C 126.996094 101.820312 117.789062 111.558594 129.800781 120.214844" fill="#3c3c3c"/></g><g id="change1_198"><path d="M 114.910156 111.410156 C 114.90625 111.417969 124.757812 102.285156 114.441406 93.46875 C 114.441406 93.476562 104.597656 102.230469 114.910156 111.410156" fill="#3c3c3c"/></g><g id="change1_138"><path d="M 102.8125 103.089844 C 102.808594 103.089844 112.675781 95.460938 104.507812 86.601562 C 104.503906 86.601562 94.691406 93.914062 102.8125 103.089844" fill="#3c3c3c"/></g><g id="change1_73"><path d="M 332.480469 192.714844 C 332.476562 192.761719 336.757812 204.59375 321.917969 205.125 C 321.914062 205.171875 317.40625 193.3125 332.480469 192.714844" fill="#3c3c3c"/></g><g id="change1_118"><path d="M 345.507812 191.042969 C 345.503906 191.078125 349.597656 201.03125 337.351562 201.683594 C 337.347656 201.71875 333.082031 191.785156 345.507812 191.042969" fill="#3c3c3c"/></g><g id="change1_21"><path d="M 356.023438 186.066406 C 356.023438 186.097656 362.457031 195.5625 351.976562 198.53125 C 351.972656 198.566406 345.445312 189.253906 356.023438 186.066406" fill="#3c3c3c"/></g><g id="change1_156"><path d="M 270.984375 199.003906 C 270.980469 199.046875 269.074219 185.992188 285.785156 187.351562 C 285.78125 187.394531 288.042969 199.816406 270.984375 199.003906" fill="#3c3c3c"/></g><g id="change1_6"><path d="M 290.910156 203.226562 C 290.902344 203.273438 287.546875 190.734375 303.199219 190.847656 C 303.195312 190.894531 306.851562 202.816406 290.910156 203.226562" fill="#3c3c3c"/></g><g id="change1_90"><path d="M 308.035156 204.542969 C 308.035156 204.585938 303.558594 193.253906 317.28125 192.175781 C 317.277344 192.214844 321.972656 203.011719 308.035156 204.542969" fill="#3c3c3c"/></g><g id="change1_129"><path d="M 115.261719 141.386719 C 115.265625 141.367188 126.816406 148.410156 137.296875 136.402344 C 137.300781 136.386719 126.210938 128.921875 115.261719 141.386719" fill="#3c3c3c"/></g><g id="change1_58"><path d="M 99.808594 133.90625 C 99.808594 133.882812 111.34375 140.617188 121.800781 128.398438 C 121.804688 128.378906 110.722656 121.214844 99.808594 133.90625" fill="#3c3c3c"/></g><g id="change1_99"><path d="M 52.796875 164.335938 C 52.800781 164.335938 58.796875 173.253906 71.828125 165.589844 C 71.835938 165.597656 66.21875 156.363281 52.796875 164.335938" fill="#3c3c3c"/></g><g id="change1_96"><path d="M 36.078125 190.359375 C 36.082031 190.339844 44.347656 197.433594 55.609375 187.683594 C 55.613281 187.671875 47.734375 180.28125 36.078125 190.359375" fill="#3c3c3c"/></g><g id="change1_218"><path d="M 0.347656 188.800781 C 0.347656 188.773438 8.515625 195.214844 19.660156 185.074219 C 19.660156 185.050781 11.863281 178.296875 0.347656 188.800781" fill="#3c3c3c"/></g><g id="change1_216"><path d="M 90.910156 124.746094 C 90.914062 124.730469 99.738281 129.710938 107.722656 120.199219 C 107.722656 120.1875 99.25 114.921875 90.910156 124.746094" fill="#3c3c3c"/></g><g id="change1_201"><path d="M 78.464844 114.707031 C 78.46875 114.703125 85.472656 121.734375 96.070312 113.554688 C 96.074219 113.554688 89.429688 106.214844 78.464844 114.707031" fill="#3c3c3c"/></g><g id="change1_4"><path d="M 59.945312 222.644531 C 59.949219 222.675781 57.953125 234.019531 72.371094 234.511719 C 72.375 234.542969 74.644531 223.207031 59.945312 222.644531" fill="#3c3c3c"/></g><g id="change1_122"><path d="M 114.738281 231.09375 C 114.738281 231.113281 116.820312 221.40625 104.792969 220.152344 C 104.796875 220.175781 102.484375 229.480469 114.738281 231.09375" fill="#3c3c3c"/></g><g id="change1_24"><path d="M 66.496094 240.652344 C 66.5 240.636719 58.890625 235.066406 50.511719 243.519531 C 50.511719 243.503906 57.71875 249.050781 66.496094 240.652344" fill="#3c3c3c"/></g><g id="change1_18"><path d="M 133.777344 222.925781 C 133.773438 222.9375 138.078125 215.816406 129.421875 211.90625 C 129.421875 211.917969 125.023438 218.746094 133.777344 222.925781" fill="#3c3c3c"/></g><g id="change1_220"><path d="M 102.410156 233.707031 C 102.410156 233.734375 104.824219 222.5625 91.011719 221.300781 C 91.011719 221.328125 88.335938 232.007812 102.410156 233.707031" fill="#3c3c3c"/></g><g id="change1_150"><path d="M 88.023438 235.140625 C 88.023438 235.171875 90.347656 224.316406 76.933594 223.3125 C 76.9375 223.339844 74.351562 233.703125 88.023438 235.140625" fill="#3c3c3c"/></g><g id="change1_195"><path d="M 117.027344 215.515625 C 117.027344 215.535156 114.398438 224.65625 125.796875 226.71875 C 125.796875 226.738281 128.640625 217.761719 117.027344 215.515625" fill="#3c3c3c"/></g><g id="change1_26"><path d="M 42.765625 140.105469 C 42.773438 140.140625 43.875 151.511719 59.171875 147.910156 C 59.179688 147.949219 58.402344 136.3125 42.765625 140.105469" fill="#3c3c3c"/></g><g id="change1_200"><path d="M 39.984375 128.621094 C 39.992188 128.65625 41.449219 139.234375 55.835938 135.253906 C 55.84375 135.289062 54.695312 124.445312 39.984375 128.621094" fill="#3c3c3c"/></g><g id="change1_159"><path d="M 38.355469 116.691406 C 38.359375 116.71875 39.671875 126.21875 52.597656 122.476562 C 52.605469 122.511719 51.574219 112.796875 38.355469 116.691406" fill="#3c3c3c"/></g><g id="change1_46"><path d="M 42.460938 101.546875 C 42.464844 101.566406 40 109.496094 49.648438 109.953125 C 49.652344 109.980469 52.269531 102.097656 42.460938 101.546875" fill="#3c3c3c"/></g><g id="change1_98"><path d="M 8.980469 126.933594 C 8.984375 126.941406 11.386719 133.507812 20.996094 128.847656 C 21 128.855469 18.828125 122.117188 8.980469 126.933594" fill="#3c3c3c"/></g><g id="change1_57"><path d="M 69.617188 106.242188 C 69.617188 106.234375 76.613281 113.109375 87.191406 104.765625 C 87.195312 104.765625 80.554688 97.570312 69.617188 106.242188" fill="#3c3c3c"/></g><g id="change1_147"><path d="M 64.074219 93.039062 C 64.078125 93.0625 66.976562 102.207031 79.707031 97.386719 C 79.714844 97.414062 77.128906 88.011719 64.074219 93.039062" fill="#3c3c3c"/></g><g id="change1_80"><path d="M 25.441406 90.785156 C 25.453125 90.863281 19.65625 105.023438 36.414062 106.761719 C 36.425781 106.84375 42.4375 92.605469 25.441406 90.785156" fill="#3c3c3c"/></g><g id="change1_164"><path d="M 38.75 74.84375 C 38.753906 74.882812 30.363281 86.265625 42.457031 91.679688 C 42.457031 91.71875 50.941406 80.621094 38.75 74.84375" fill="#3c3c3c"/></g><g id="change1_25"><path d="M 62.488281 81.949219 C 62.492188 81.96875 63.886719 89.640625 74.300781 86.511719 C 74.304688 86.53125 73.15625 78.730469 62.488281 81.949219" fill="#3c3c3c"/></g><g id="change1_9"><path d="M 264.828125 227.269531 C 264.824219 227.277344 267.804688 219.863281 279.546875 224.121094 C 279.546875 224.128906 276.925781 231.285156 264.828125 227.269531" fill="#3c3c3c"/></g><g id="change1_146"><path d="M 273.835938 236.472656 C 273.835938 236.492188 273.761719 228.414062 286.035156 229.15625 C 286.03125 229.175781 286.398438 236.890625 273.835938 236.472656" fill="#3c3c3c"/></g><g id="change1_165"><path d="M 286.054688 238.515625 C 286.054688 238.535156 284.222656 230.5 296.148438 229.28125 C 296.148438 229.304688 298.222656 236.949219 286.054688 238.515625" fill="#3c3c3c"/></g><g id="change1_44"><path d="M 298.734375 239.636719 C 298.730469 239.660156 295.597656 231.835938 306.953125 229.199219 C 306.953125 229.226562 310.28125 236.648438 298.734375 239.636719" fill="#3c3c3c"/></g><g id="change1_143"><path d="M 311.085938 238.023438 C 311.085938 238.050781 308.960938 230.089844 320.734375 228.871094 C 320.730469 228.898438 323.089844 236.453125 311.085938 238.023438" fill="#3c3c3c"/></g><g id="change1_191"><path d="M 323.007812 239.089844 C 323 239.125 321.953125 229.277344 336.878906 229.921875 C 336.871094 229.960938 338.273438 239.25 323.007812 239.089844" fill="#3c3c3c"/></g><g id="change1_101"><path d="M 293.414062 263.566406 C 293.414062 263.527344 305.027344 257.410156 316.621094 271.777344 C 316.617188 271.738281 305.601562 278 293.414062 263.566406" fill="#3c3c3c"/></g><g id="change1_225"><path d="M 254.425781 224.589844 C 254.429688 224.605469 249.671875 215.53125 260.015625 208.796875 C 260.019531 208.820312 264.894531 217.4375 254.425781 224.589844" fill="#3c3c3c"/></g><g id="change1_85"><path d="M 245.074219 230.140625 C 245.074219 230.148438 238.117188 223.101562 245.871094 212.8125 C 245.871094 212.820312 252.839844 219.457031 245.074219 230.140625" fill="#3c3c3c"/></g><g id="change1_27"><path d="M 289.425781 222.996094 C 289.429688 222.96875 276.335938 223.085938 277.027344 209.6875 C 277.03125 209.65625 289.847656 209.355469 289.425781 222.996094" fill="#3c3c3c"/></g><g id="change1_115"><path d="M 305.777344 224.335938 C 305.785156 224.308594 292.722656 224.183594 293.425781 210.90625 C 293.429688 210.875 306.210938 210.832031 305.777344 224.335938" fill="#3c3c3c"/></g><g clip-path="url(#b)" id="change1_107"><path d="M 372.429688 188.683594 C 372.421875 188.730469 376.367188 199.777344 361.414062 198.316406 C 361.40625 198.367188 357.246094 187.175781 372.429688 188.683594" fill="#3c3c3c"/></g><g id="change1_133"><path d="M 369.328125 168.554688 C 369.3125 168.628906 371.296875 183.304688 350.933594 177.882812 C 350.914062 177.960938 348.617188 162.746094 369.328125 168.554688" fill="#3c3c3c"/></g><g id="change1_110"><path d="M 318.566406 223.480469 C 318.570312 223.464844 308.597656 223.1875 309.140625 213.128906 C 309.144531 213.105469 318.898438 213.234375 318.566406 223.480469" fill="#3c3c3c"/></g><g id="change1_170"><path d="M 334.789062 220.25 C 334.789062 220.222656 324.65625 222.054688 322.242188 211.960938 C 322.246094 211.933594 332.101562 209.980469 334.789062 220.25" fill="#3c3c3c"/></g><g id="change1_38"><path d="M 347.328125 218.40625 C 347.332031 218.378906 337.230469 220.003906 334.824219 209.957031 C 334.828125 209.929688 344.648438 208.1875 347.328125 218.40625" fill="#3c3c3c"/></g><g id="change1_54"><path d="M 360.554688 212.335938 C 360.558594 212.304688 352.039062 216.945312 345.484375 208.398438 C 345.484375 208.371094 353.6875 203.597656 360.554688 212.335938" fill="#3c3c3c"/></g><g id="change1_77"><path d="M 304.742188 255.714844 C 304.746094 255.695312 294.246094 257.308594 292.871094 247.109375 C 292.871094 247.085938 303.105469 245.347656 304.742188 255.714844" fill="#3c3c3c"/></g><g id="change1_222"><path d="M 294.070312 272.753906 C 294.074219 272.734375 283.242188 273.179688 283.5625 263.007812 C 283.5625 262.992188 294.15625 262.402344 294.070312 272.753906" fill="#3c3c3c"/></g><g id="change1_169"><path d="M 278.121094 269.589844 C 278.121094 269.582031 267.484375 266.605469 272.023438 257.453125 C 272.023438 257.445312 282.519531 260.210938 278.121094 269.589844" fill="#3c3c3c"/></g><g id="change1_104"><path d="M 264.410156 263.90625 C 264.414062 263.914062 255.324219 257.953125 263.339844 250.933594 C 263.339844 250.941406 272.394531 256.617188 264.410156 263.90625" fill="#3c3c3c"/></g><g id="change1_212"><path d="M 250.484375 257.671875 C 250.484375 257.6875 245.53125 248.726562 256.703125 246.238281 C 256.703125 246.257812 261.792969 254.871094 250.484375 257.671875" fill="#3c3c3c"/></g><g id="change1_230"><path d="M 292.4375 254.472656 C 292.4375 254.445312 281.921875 256.199219 280.535156 245.949219 C 280.539062 245.929688 290.789062 244.046875 292.4375 254.472656" fill="#3c3c3c"/></g><g id="change1_79"><path d="M 317.730469 254.09375 C 317.734375 254.070312 307.257812 255.519531 305.886719 245.378906 C 305.890625 245.351562 316.101562 243.785156 317.730469 254.09375" fill="#3c3c3c"/></g><g id="change1_215"><path d="M 331.933594 248.179688 C 331.933594 248.152344 322.699219 252.703125 316.933594 244.007812 C 316.933594 243.984375 325.84375 239.324219 331.933594 248.179688" fill="#3c3c3c"/></g><g id="change1_206"><path d="M 369.257812 206.179688 C 369.257812 206.160156 362.945312 210.3125 356.945312 203.863281 C 356.945312 203.847656 363 199.582031 369.257812 206.179688" fill="#3c3c3c"/></g><g id="change1_53"><path d="M 4.6875 197.300781 C 4.691406 197.265625 14.933594 208.136719 32.453125 195.105469 C 32.460938 195.082031 22.699219 183.589844 4.6875 197.300781" fill="#3c3c3c"/></g><g id="change1_112"><path d="M 34.695312 232.980469 C 34.699219 232.960938 43.1875 243.261719 58.421875 233.144531 C 58.425781 233.132812 50.402344 222.476562 34.695312 232.980469" fill="#3c3c3c"/></g><g id="change1_130"><path d="M 53 252.503906 C 53 252.480469 62.722656 261.570312 76.070312 250.78125 C 76.074219 250.761719 66.828125 241.394531 53 252.503906" fill="#3c3c3c"/></g><g id="change1_190"><path d="M 46.050781 216.371094 C 46.046875 216.335938 58.4375 216.949219 61.65625 204.351562 C 61.652344 204.316406 49.601562 203.492188 46.050781 216.371094" fill="#3c3c3c"/></g><g id="change1_1"><path d="M 81.152344 217.191406 C 81.148438 217.175781 93.40625 212.761719 89.527344 200.960938 C 89.523438 200.945312 77.460938 205.085938 81.152344 217.191406" fill="#3c3c3c"/></g><g id="change1_180"><path d="M 63.425781 219.84375 C 63.417969 219.8125 77.671875 217.742188 75.449219 204.25 C 75.441406 204.21875 61.464844 206.078125 63.425781 219.84375" fill="#3c3c3c"/></g><g id="change1_136"><path d="M 32.589844 209.871094 C 32.589844 209.84375 42.011719 213.976562 49.542969 203.667969 C 49.542969 203.644531 40.472656 199.300781 32.589844 209.871094" fill="#3c3c3c"/></g><g id="change1_219"><path d="M 23.992188 204.679688 C 23.992188 204.664062 30.960938 208.570312 37.820312 200.667969 C 37.820312 200.65625 31.140625 196.585938 23.992188 204.679688" fill="#3c3c3c"/></g><g id="change1_13"><path d="M 69.183594 259.882812 C 69.183594 259.871094 76.210938 264.503906 83.128906 256.996094 C 83.128906 256.988281 76.40625 252.230469 69.183594 259.882812" fill="#3c3c3c"/></g><g id="change1_45"><path d="M 113.921875 263.320312 C 113.914062 263.316406 125.464844 257.78125 119.425781 246.511719 C 119.421875 246.503906 108.007812 251.71875 113.921875 263.320312" fill="#3c3c3c"/></g><g id="change1_235"><path d="M 131.917969 257.613281 C 131.914062 257.617188 142.992188 248.988281 131.566406 239.652344 C 131.5625 239.660156 120.492188 247.898438 131.917969 257.613281" fill="#3c3c3c"/></g><g id="change1_168"><path d="M 97.003906 264.761719 C 97.003906 264.75 108.585938 263.421875 108.058594 251.890625 C 108.058594 251.875 96.722656 252.964844 97.003906 264.761719" fill="#3c3c3c"/></g><g id="change1_63"><path d="M 85.308594 264.890625 C 85.304688 264.878906 94.59375 264.554688 95.234375 255.265625 C 95.234375 255.257812 86.171875 255.394531 85.308594 264.890625" fill="#3c3c3c"/></g></g></svg>