<svg xmlns="http://www.w3.org/2000/svg" data-name="Layer 1" viewBox="0 0 1031 697">
  <path fill="#f2f2f2" d="M747 162a61 61 0 0161-57h5a81 81 0 01139 0h5a61 61 0 0160 57"/>
  <path fill="none" stroke="#3f3d56" stroke-miterlimit="10" d="M760 158a61 61 0 0160-58l6 1a81 81 0 01139 0l5-1a61 61 0 0160 58"/>
  <path fill="#f2f2f2" d="M71 504a201 201 0 01219-189 267 267 0 01461 0l15-1c107 0 195 84 200 190"/>
  <path fill="none" stroke="#3f3d56" stroke-miterlimit="10" d="M113 489a201 201 0 01218-190 267 267 0 01461 0h16c107 0 195 84 200 190"/>
  <path fill="#f2f2f2" d="M0 138a82 82 0 0182-77h7a109 109 0 01189 0h6a82 82 0 0182 77"/>
  <path fill="none" stroke="#3f3d56" stroke-miterlimit="10" d="M17 132a82 82 0 0182-78l7 1a109 109 0 01189 0l6-1a82 82 0 0182 78"/>
  <path fill="#fbbebe" d="M411 236s14 34-7 42c0 0 30 13 37 10s12-10 12-12-7-3-7-3-13 1-3-32z"/>
  <circle cx="427" cy="228.7" r="25" fill="#fbbebe"/>
  <ellipse cx="410.5" cy="223.2" fill="#ff6584" rx="22" ry="31"/>
  <ellipse cx="394.5" cy="213.2" fill="#ff6584" rx="22" ry="31"/>
  <ellipse cx="372.5" cy="190.7" fill="#ff6584" rx="11" ry="15.5"/>
  <path fill="#fbbebe" d="M452 272s6-12 28-18 65-78 65-78-2-43 8-30 2 39 2 39l-26 44a97 97 0 01-18 23c-16 15-44 41-47 41-4 0-12-21-12-21zM417 443s7 85 5 93-8 24 2 71-2 44-2 44l32 14s-11-54-9-69 1-46 7-67 7-80 7-80z"/>
  <path d="M417 443s7 85 5 93-8 24 2 71-2 44-2 44l32 14s-11-54-9-69 1-46 7-67 7-80 7-80z" opacity=".1"/>
  <path fill="#3f3d56" d="M453 654c-3 2-9 3-21-9 0 0-7-10-13 0s-2 11 2 16c4 4 35 37 48 36a6 6 0 001 0c12-4-5-17-5-17s-11-17-11-26a1 1 0 00-1 0z"/>
  <path fill="#fbbebe" d="M393 433s-17 39-24 59c-4 10-15 13-24 14a84 84 0 00-35 11c-14 7-33 16-45 15-21-3-4 30-4 30s31-19 60-21 60-5 74-23 48-75 48-75z"/>
  <path fill="#3f3d56" d="M262 557s-10-7-2-14 11-13 11-13-14-15-19-7-27 44-22 55 10 14 16 2 21-22 21-22z"/>
  <path fill="#6c63ff" d="M448 277s-3 6-34 0a19 19 0 00-21 10c-4 7-4 19 9 33 0 0 24 27 12 38s57-7 57-7-9-6-1-24c6-14 6-22 1-29a31 31 0 01-6-13c-1-6-5-15-13-15 0 0-9-1-9 1s7 5 5 6z"/>
  <path fill="#fbbebe" d="M411 298v-4c-1-5-3-17-11-15-10 3-21 28-21 28s-9 28-22 35-49 43-49 43-30 8-19 16 25-5 25-5l35-22a101 101 0 0032-29c7-11 16-23 22-27a19 19 0 008-10 23 23 0 000-10z"/>
  <path fill="#6c63ff" d="M420 356s-46-6-72 25-45 22-43 27 98 64 154 57c34-5 52-8 61-11a17 17 0 0010-6 18 18 0 015-5 9 9 0 002-12c-16-23-59-84-71-85-15-2-46 10-46 10z"/>
  <ellipse cx="427.5" cy="201.7" fill="#ff6584" rx="16" ry="11.5"/>
  <path fill="#a0616a" d="M747 99a113 113 0 014-15c2-5 4-10 7-10 6 0-22-26-22-26l-5 8a108 108 0 01-7 9 52 52 0 01-11 11c-12 8 34 23 34 23zM829 202s62 39 42 45-50-39-50-39z"/>
  <path fill="#6c63ff" d="M746 113s29 21 38 38 54 53 54 53-10 18-14 17-97-70-107-76 5-40 29-32z"/>
  <path d="M746 113s29 21 38 38 54 53 54 53-10 18-14 17-97-70-107-76 5-40 29-32z" opacity=".1"/>
  <path fill="#a0616a" d="M833 152s70 23 53 34-59-27-59-27z"/>
  <path fill="#55536e" d="M789 468s29-12 26 7-17 35-17 44-26 30-31 25 8-23 5-34-7-35-7-35z"/>
  <path d="M789 468s29-12 26 7-17 35-17 44-26 30-31 25 8-23 5-34-7-35-7-35z" opacity=".1"/>
  <path fill="#55536e" d="M779 482s30-12 27 6-17 36-17 45-27 30-31 25 7-23 4-34-6-36-6-36z"/>
  <path fill="#3f3d56" d="M711 369s91 87 88 95-23 24-23 24-69-91-65-119z"/>
  <path d="M711 369s91 87 88 95-23 24-23 24-69-91-65-119z" opacity=".1"/>
  <path fill="#3f3d56" d="M690 213s23 24 17 68 4 88 17 102 63 95 63 95-22 35-39 17-68-95-68-95-46-91-51-115-6-64 7-72 54 0 54 0z"/>
  <path d="M728 61c18 3 16 4 27 8h1c1-4 2 1 5 1 6 0-22-26-22-26l-3 4-2 3-1 3z" opacity=".1"/>
  <circle cx="760.7" cy="52.9" r="29.3" fill="#a0616a"/>
  <path fill="#6c63ff" d="M707 74s44 5 54 25-57 118-62 119l-70 9s4-98 64-136c0 0 14-6 14-17z"/>
  <path fill="#6c63ff" d="M731 85s34 14 47 28 65 39 65 39-5 20-10 20-111-45-122-48-4-40 20-39z"/>
  <path fill="#3f3d56" d="M758 57s8-8-7-14c0 0 15-6 18-16s14-24 23 0 27 58-29 58c0 0-14 3-14-10a23 23 0 019-18z"/>
</svg>
